<svg width="25" height="24" viewBox="0 0 25 24" fill="none" xmlns="http://www.w3.org/2000/svg">
<path fill-rule="evenodd" clip-rule="evenodd" d="M12.3125 4.97243C12.8668 4.97243 13.3162 4.52719 13.3162 3.97795C13.3162 3.42871 12.8668 2.98346 12.3125 2.98346C11.7581 2.98346 11.3088 3.42871 11.3088 3.97795C11.3088 4.52719 11.7581 4.97243 12.3125 4.97243Z" fill="white"/>
<path fill-rule="evenodd" clip-rule="evenodd" d="M8.29768 12.9283C8.29768 12.3791 7.84831 11.9338 7.29399 11.9338C6.73966 11.9338 6.29029 12.3791 6.29029 12.9283C6.29029 13.4776 6.73966 13.9228 7.29399 13.9228C7.84831 13.9228 8.29768 13.4776 8.29768 12.9283Z" fill="white"/>
<path fill-rule="evenodd" clip-rule="evenodd" d="M7.29399 17.9008C7.84831 17.9008 8.29768 17.4555 8.29768 16.9063C8.29768 16.357 7.84831 15.9118 7.29399 15.9118C6.73966 15.9118 6.29029 16.357 6.29029 16.9063C6.29029 17.4555 6.73966 17.9008 7.29399 17.9008Z" fill="white"/>
<path fill-rule="evenodd" clip-rule="evenodd" d="M9.30138 12.9283C9.30138 13.4776 9.75075 13.9228 10.3051 13.9228H17.3309C17.8853 13.9228 18.3346 13.4776 18.3346 12.9283C18.3346 12.3791 17.8853 11.9338 17.3309 11.9338H10.3051C9.75075 11.9338 9.30138 12.3791 9.30138 12.9283Z" fill="white"/>
<path fill-rule="evenodd" clip-rule="evenodd" d="M10.3051 15.9118C9.75075 15.9118 9.30138 16.357 9.30138 16.9063C9.30138 17.4555 9.75075 17.9008 10.3051 17.9008H14.3198C14.8742 17.9008 15.3235 17.4555 15.3235 16.9063C15.3235 16.357 14.8742 15.9118 14.3198 15.9118H10.3051Z" fill="white"/>
<path fill-rule="evenodd" clip-rule="evenodd" d="M8.29768 1.98897C7.18903 1.98897 6.29029 2.87947 6.29029 3.97795H5.2866C3.62362 3.97795 2.27551 5.31369 2.27551 6.96141V20.8842C2.27551 22.5319 3.62362 23.8677 5.2866 23.8677H19.3383C21.0013 23.8677 22.3494 22.5319 22.3494 20.8842V6.96141C22.3494 5.31369 21.0013 3.97795 19.3383 3.97795H18.3346C18.3346 2.87947 17.4359 1.98897 16.3272 1.98897H15.7898C15.0961 0.800762 13.7996 0 12.3125 0C10.8253 0 9.52878 0.800762 8.83509 1.98897H8.29768ZM12.3125 1.98897C13.1849 1.98897 13.9298 2.54102 14.2059 3.31487L14.4424 3.97795H16.3272V6.96141H8.29768V3.97795H10.1825L10.419 3.31487C10.6951 2.54102 11.44 1.98897 12.3125 1.98897ZM19.3383 5.96692C19.8926 5.96692 20.342 6.41217 20.342 6.96141V20.8842C20.342 21.4335 19.8926 21.8787 19.3383 21.8787H5.2866C4.73227 21.8787 4.2829 21.4335 4.2829 20.8842V6.96141C4.2829 6.41217 4.73227 5.96692 5.2866 5.96692H6.29029V6.96141C6.29029 8.05989 7.18903 8.95038 8.29768 8.95038H16.3272C17.4359 8.95038 18.3346 8.05989 18.3346 6.96141V5.96692H19.3383Z" fill="white"/>
</svg>
