<svg width="25" height="24" viewBox="0 0 25 24" fill="none" xmlns="http://www.w3.org/2000/svg">
<g clip-path="url(#clip0_19_247)">
<path d="M20.1871 3C22.1376 3.00007 23.7193 4.56741 23.7194 6.5V16.5C23.7194 18.4326 22.1377 20.0009 20.1871 20.001H4.5426C2.59223 20.0007 1.01038 18.4325 1.01038 16.5V6.5C1.01043 4.56751 2.59226 3.00024 4.5426 3H20.1871ZM4.5426 5C3.70702 5.00024 3.02899 5.67204 3.02893 6.5V16.5C3.02893 17.328 3.70699 17.9998 4.5426 18H20.1871C21.0229 17.9999 21.7008 17.3281 21.7008 16.5V6.5C21.7008 5.67194 21.0229 5.00007 20.1871 5H4.5426ZM16.6549 14.502C17.0728 14.502 17.4127 14.8379 17.4127 15.252V15.752C17.4125 16.1659 17.0727 16.502 16.6549 16.502H8.07678C7.65901 16.502 7.31916 16.1659 7.31897 15.752V15.252C7.31897 14.8379 7.65889 14.502 8.07678 14.502H16.6549ZM6.81116 10.499C7.22889 10.499 7.56773 10.8352 7.56799 11.249V12.25C7.56774 12.6638 7.22889 13 6.81116 13H5.80237C5.38463 13 5.04579 12.6638 5.04553 12.25V11.249C5.04579 10.8352 5.38463 10.499 5.80237 10.499H6.81116ZM10.8502 10.499C11.268 10.499 11.6078 10.8352 11.608 11.249V12.25C11.6078 12.6638 11.268 13 10.8502 13H9.84143C9.42369 13 9.08485 12.6638 9.08459 12.25V11.249C9.08486 10.8352 9.4237 10.499 9.84143 10.499H10.8502ZM14.8893 10.499C15.307 10.499 15.6468 10.8352 15.6471 11.249V12.25C15.6468 12.6638 15.307 13 14.8893 13H13.8805C13.4628 13 13.1239 12.6638 13.1237 12.25V11.249C13.1239 10.8352 13.4628 10.499 13.8805 10.499H14.8893ZM18.9244 10.499C19.3422 10.499 19.681 10.8352 19.6813 11.249V12.25C19.681 12.6638 19.3422 13 18.9244 13H17.9147C17.4971 12.9998 17.1581 12.6637 17.1578 12.25V11.249C17.1581 10.8353 17.4971 10.4993 17.9147 10.499H18.9244ZM6.81116 6.50195C7.22905 6.50195 7.56799 6.83789 7.56799 7.25195V8.25195C7.56795 8.66598 7.22903 9.00195 6.81116 9.00195H5.80237C5.3845 9.00195 5.04558 8.66598 5.04553 8.25195V7.25195C5.04553 6.83789 5.38447 6.50195 5.80237 6.50195H6.81116ZM10.8502 6.50195C11.2681 6.50195 11.608 6.83789 11.608 7.25195V8.25195C11.608 8.66598 11.2681 9.00195 10.8502 9.00195H9.84143C9.42356 9.00195 9.08464 8.66598 9.08459 8.25195V7.25195C9.08459 6.83789 9.42354 6.50195 9.84143 6.50195H10.8502ZM14.8893 6.50195C15.3072 6.50195 15.6471 6.83789 15.6471 7.25195V8.25195C15.6471 8.66598 15.3072 9.00195 14.8893 9.00195H13.8805C13.4626 9.00195 13.1237 8.66598 13.1237 8.25195V7.25195C13.1237 6.83789 13.4626 6.50195 13.8805 6.50195H14.8893ZM18.9244 6.50195C19.3423 6.50197 19.6813 6.8379 19.6813 7.25195V8.25195C19.6812 8.66597 19.3423 9.00194 18.9244 9.00195H17.9147C17.497 9.00171 17.1579 8.66583 17.1578 8.25195V7.25195C17.1578 6.83804 17.497 6.50219 17.9147 6.50195H18.9244Z" fill="white"/>
</g>
<defs>
<clipPath id="clip0_19_247">
<rect width="24.2222" height="24" fill="white"/>
</clipPath>
</defs>
</svg>
