<svg width="25" height="24" viewBox="0 0 25 24" fill="none" xmlns="http://www.w3.org/2000/svg">
<path d="M11.5725 23C10.9131 23 10.3063 22.6431 9.99052 22.0695L8.09483 18.626C7.57297 17.678 6.83686 16.8625 5.94406 16.2433L5.56307 15.979C3.34159 14.4383 2.01855 11.9205 2.01855 9.23372C2.01855 4.68636 5.73905 1 10.3285 1H18.1667C19.8389 1 21.1945 2.34315 21.1945 4C21.1945 4.53465 21.0533 5.03664 20.8059 5.47137C21.6465 6.00444 22.2037 6.93774 22.2037 8C22.2037 8.76836 21.9122 9.46925 21.4328 10C21.9122 10.5308 22.2037 11.2316 22.2037 12C22.2037 13.6569 20.8482 15 19.176 15H14.5768L15.4865 17.4038C16.5114 20.1116 14.4911 23 11.5725 23ZM12.1836 14.3727C12.1585 14.3108 12.1394 14.2458 12.1272 14.1785C12.1056 14.0614 12.1058 13.9438 12.1256 13.8306C12.1509 13.6838 12.2085 13.5478 12.2909 13.4302C12.373 13.3126 12.4811 13.2116 12.6109 13.1366C12.7109 13.0785 12.822 13.037 12.9403 13.0159C13.0082 13.0036 13.0763 12.9984 13.1437 13H19.176C19.7334 13 20.1852 12.5523 20.1852 12C20.1852 11.4477 19.7334 11 19.176 11H17.1574C16.6 11 16.1482 10.5523 16.1482 10C16.1482 9.44771 16.6 9 17.1574 9H19.176C19.7334 9 20.1852 8.55228 20.1852 8C20.1852 7.44772 19.7334 7 19.176 7H17.1574C16.6 7 16.1482 6.55228 16.1482 6C16.1482 5.44772 16.6 5 17.1574 5H18.1667C18.7241 5 19.176 4.55228 19.176 4C19.176 3.44772 18.7241 3 18.1667 3H10.3285C6.85385 3 4.03707 5.79093 4.03707 9.23372C4.03707 11.2679 5.03874 13.1741 6.72061 14.3406L7.10161 14.6048C8.24949 15.401 9.19592 16.4495 9.86688 17.6683L11.6991 20.9965C13.1395 20.9158 14.1116 19.4668 13.5965 18.1061L12.1836 14.3727Z" fill="white"/>
</svg>
