<svg width="25" height="24" viewBox="0 0 25 24" fill="none" xmlns="http://www.w3.org/2000/svg">
<path d="M14.7404 2.70668C15.807 1.64986 17.5363 1.64986 18.6029 2.70668L21.4903 5.56762C22.5569 6.62444 22.5569 8.33789 21.4903 9.39472L9.12172 21.6499C8.95098 21.819 8.71942 21.9141 8.47796 21.9141H3.01551C2.51271 21.9141 2.1051 21.5102 2.1051 21.012V15.5997C2.1051 15.3604 2.20102 15.131 2.37175 14.9618L14.7404 2.70668ZM17.3154 3.98238C16.9599 3.63011 16.3834 3.63011 16.0279 3.98238L15.2279 4.775L19.4029 8.91163L20.2028 8.11902C20.5584 7.76674 20.5584 7.19559 20.2028 6.84332L17.3154 3.98238ZM18.1153 10.1873L13.9404 6.0507L3.92592 15.9733V20.11H8.10086L18.1153 10.1873Z" fill="white"/>
</svg>
