<svg width="25" height="24" viewBox="0 0 25 24" fill="none" xmlns="http://www.w3.org/2000/svg">
<g clip-path="url(#clip0_19_241)">
<path fill-rule="evenodd" clip-rule="evenodd" d="M11.4307 1.20219C11.7921 0.925441 12.2966 0.925441 12.6581 1.20219L20.0739 6.88005V3.97809C20.0739 3.42885 20.5233 2.9836 21.0776 2.9836C21.632 2.9836 22.0813 3.42885 22.0813 3.97809V8.41698L23.6987 9.65533C24.1374 9.99116 24.2182 10.6157 23.8792 11.0503C23.5403 11.4849 22.91 11.565 22.4713 11.2292L22.0813 10.9306V21.8788C22.0813 22.4281 21.632 22.8733 21.0776 22.8733H3.01113C2.45681 22.8733 2.00744 22.4281 2.00744 21.8788V10.9306L1.61745 11.2292C1.17882 11.565 0.548475 11.4849 0.209534 11.0503C-0.129406 10.6157 -0.0485928 9.99116 0.390036 9.65533L11.4307 1.20219ZM4.01483 9.39365V20.8844H20.0739V9.39365L12.0444 3.24591L4.01483 9.39365Z" fill="white"/>
</g>
<defs>
<clipPath id="clip0_19_241">
<rect width="24.2222" height="24" fill="white"/>
</clipPath>
</defs>
</svg>
