<svg width="25" height="24" viewBox="0 0 25 24" fill="none" xmlns="http://www.w3.org/2000/svg">
<path fill-rule="evenodd" clip-rule="evenodd" d="M8.07622 9.41439L1.30684 2.70711C0.912695 2.31658 0.912695 1.68342 1.30684 1.29289C1.70098 0.902369 2.34 0.902369 2.73414 1.29289L22.7165 21.0919C23.1106 21.4824 23.1106 22.1156 22.7165 22.5061C22.3223 22.8966 21.6833 22.8966 21.2891 22.5061L16.8523 18.11C15.8936 18.7912 14.6709 19.2971 13.1225 19.4511V22C13.1225 22.5523 12.6707 23 12.1133 23C11.5559 23 11.104 22.5523 11.104 22V19.4511C8.02676 19.145 6.23608 17.4492 5.24653 15.7497C4.71254 14.8326 4.41453 13.9249 4.24916 13.2523C4.166 12.914 4.11506 12.6297 4.08456 12.426C4.06929 12.324 4.05907 12.2418 4.05248 12.1826C4.04777 12.1552 4.04422 12.1088 4.04202 12.0723C4.04026 12.0284 4.03943 12.0146 4.03946 12.0187L4.03968 12.026C3.99976 11.4777 4.41687 11.0452 4.97099 11.0029C5.52573 10.9607 6.01017 11.3711 6.05444 11.9203L6.05461 11.9224L6.05496 11.926C6.0556 11.9328 6.05684 11.9454 6.05885 11.9634C6.06285 11.9994 6.06989 12.0568 6.08123 12.1326C6.10395 12.2843 6.14369 12.5079 6.21033 12.779C6.34459 13.3251 6.58275 14.0424 6.99494 14.7503C7.79416 16.1229 9.25581 17.5 12.1132 17.5C13.5152 17.5 14.5811 17.1685 15.3977 16.6687L14.1639 15.4462C13.5629 15.7981 12.8619 16 12.1133 16C9.88367 16 8.07622 14.2091 8.07622 12V9.41439ZM12.636 13.9323L10.0947 11.4144V12C10.0947 13.1046 10.9985 14 12.1133 14C12.294 14 12.4692 13.9765 12.636 13.9323ZM4.04166 12.0662L4.04202 12.0723L4.04229 12.0789L4.04219 12.0777L4.04166 12.0662ZM4.04166 12.0662L4.04005 12.0309L4.03968 12.026C4.04 12.0345 4.04067 12.049 4.04166 12.0662ZM14.1318 5C14.1318 3.89543 13.2281 3 12.1133 3C10.9985 3 10.0947 3.89543 10.0947 5V5.78595L8.22213 3.93053C8.6942 2.24066 10.2575 1 12.1133 1C14.3429 1 16.1503 2.79086 16.1503 5V11.786L14.1318 9.78595V5ZM17.8221 13.4425L19.3769 14.9829C19.6711 14.3405 19.8584 13.7357 19.9773 13.2523C20.0604 12.914 20.1114 12.6297 20.1419 12.426C20.1571 12.324 20.1673 12.2418 20.1739 12.1826C20.1777 12.149 20.1809 12.1154 20.1839 12.0818L20.1841 12.0789L20.1843 12.0767C20.2271 11.526 19.8112 11.0453 19.2554 11.0029C18.7007 10.9607 18.2163 11.3711 18.172 11.9202L18.1715 11.926C18.1715 11.926 18.1709 11.9319 18.17 11.9402C18.1693 11.947 18.1685 11.9553 18.1676 11.9634C18.1636 11.9994 18.1565 12.0568 18.1452 12.1326C18.1225 12.2843 18.0827 12.5079 18.0161 12.779C17.9667 12.9799 17.9032 13.2041 17.8221 13.4425Z" fill="white"/>
</svg>
