<svg width="25" height="24" viewBox="0 0 25 24" fill="none" xmlns="http://www.w3.org/2000/svg">
<g clip-path="url(#clip0_741_12426)">
<path d="M16.0826 10.5295C17.3594 9.42945 18.1666 7.80813 18.1666 6C18.1666 2.68629 15.4555 0 12.1111 0C8.76667 0 6.0555 2.68629 6.0555 6C6.0555 7.80813 6.86271 9.42945 8.13955 10.5295C5.53268 11.5209 3.54897 13.8185 3.06682 16.6848L2.0322 22.8356C1.94056 23.3804 2.31199 23.8956 2.86181 23.9864C3.41162 24.0772 3.93162 23.7092 4.02325 23.1644L5.05788 17.0136C5.54453 14.1205 8.07085 12 11.031 12H13.1911C16.1513 12 18.6776 14.1205 19.1642 17.0136L20.1989 23.1644C20.2905 23.7092 20.8105 24.0772 21.3603 23.9864C21.9101 23.8956 22.2816 23.3804 22.1899 22.8356L21.1553 16.6848C20.6731 13.8185 18.6894 11.5209 16.0826 10.5295ZM12.1111 2C14.3407 2 16.1481 3.79086 16.1481 6C16.1481 8.20914 14.3407 10 12.1111 10C9.88147 10 8.07402 8.20914 8.07402 6C8.07402 3.79086 9.88147 2 12.1111 2Z" fill="white"/>
<path d="M11.3541 15C11.2148 15 11.1018 15.1119 11.1018 15.25V17H9.3356C9.19625 17 9.08328 17.1119 9.08328 17.25V18.75C9.08328 18.8881 9.19625 19 9.3356 19H11.1018V20.75C11.1018 20.8881 11.2148 21 11.3541 21H12.868C13.0074 21 13.1203 20.8881 13.1203 20.75V19H14.8865C15.0259 19 15.1388 18.8881 15.1388 18.75V17.25C15.1388 17.1119 15.0259 17 14.8865 17H13.1203V15.25C13.1203 15.1119 13.0074 15 12.868 15H11.3541Z" fill="white"/>
</g>
<defs>
<clipPath id="clip0_741_12426">
<rect width="24.2222" height="24" fill="white"/>
</clipPath>
</defs>
</svg>
