<svg width="25" height="24" viewBox="0 0 25 24" fill="none" xmlns="http://www.w3.org/2000/svg">
<path fill-rule="evenodd" clip-rule="evenodd" d="M10.218 2.18728C10.8683 0.446042 13.3538 0.446035 14.0041 2.18727L16.1676 7.98044L22.0144 10.1241C23.7718 10.7684 23.7718 13.2312 22.0144 13.8755L16.1676 16.0192L14.0041 21.8123C13.3538 23.5536 10.8683 23.5536 10.218 21.8123L8.05447 16.0192L2.20767 13.8755C0.450312 13.2312 0.450305 10.7684 2.20767 10.1241L8.05447 7.98044L10.218 2.18728ZM14.4356 9.10575L12.1111 2.88135L9.78649 9.10575C9.68427 9.37947 9.46646 9.59528 9.1902 9.69657L2.90817 11.9998L9.1902 14.303C9.46646 14.4043 9.68427 14.6201 9.78649 14.8939L12.1111 21.1183L14.4356 14.8939C14.5378 14.6201 14.7557 14.4043 15.0319 14.303L21.3139 11.9998L15.0319 9.69657C14.7557 9.59528 14.5378 9.37947 14.4356 9.10575Z" fill="white"/>
<path d="M20.1851 0.999805L21.0029 3.18953L23.2129 3.9998L21.0029 4.81008L20.1851 6.9998L19.3674 4.81008L17.1574 3.9998L19.3674 3.18953L20.1851 0.999805Z" fill="white"/>
<path d="M3.53235 21.9998C4.36845 21.9998 5.04624 21.3282 5.04624 20.4998C5.04624 19.6714 4.36845 18.9998 3.53235 18.9998C2.69625 18.9998 2.01846 19.6714 2.01846 20.4998C2.01846 21.3282 2.69625 21.9998 3.53235 21.9998Z" fill="white"/>
</svg>
