<svg width="25" height="24" viewBox="0 0 25 24" fill="none" xmlns="http://www.w3.org/2000/svg">
<path d="M16.174 16.75C15.9635 16.5093 15.8582 16.2359 15.8582 15.93C15.8582 15.6248 15.9635 15.3704 16.174 15.1667L18.2988 13.1111H10.0582C9.73276 13.1111 9.46018 13.0044 9.24043 12.7911C9.01991 12.5785 8.90966 12.3148 8.90966 12C8.90966 11.6852 9.01991 11.4211 9.24043 11.2078C9.46018 10.9952 9.73276 10.8889 10.0582 10.8889H18.2988L16.174 8.83333C15.9443 8.61111 15.8295 8.34741 15.8295 8.04222C15.8295 7.7363 15.9443 7.47222 16.174 7.25C16.3846 7.02778 16.648 6.91667 16.9642 6.91667C17.2797 6.91667 17.5427 7.01852 17.7532 7.22222L21.8879 11.2222C22.0027 11.3333 22.0843 11.4537 22.1325 11.5833C22.18 11.713 22.2037 11.8519 22.2037 12C22.2037 12.1481 22.18 12.287 22.1325 12.4167C22.0843 12.5463 22.0027 12.6667 21.8879 12.7778L17.7532 16.7778C17.5044 17.0185 17.2318 17.1248 16.9355 17.0967C16.6384 17.0693 16.3846 16.9537 16.174 16.75ZM4.31559 22C3.6839 22 3.14295 21.7826 2.69273 21.3478C2.24328 20.9122 2.01855 20.3889 2.01855 19.7778V4.22222C2.01855 3.61111 2.24328 3.08778 2.69273 2.65222C3.14295 2.21741 3.6839 2 4.31559 2H11.2067C11.5321 2 11.8051 2.1063 12.0256 2.31889C12.2453 2.53222 12.3552 2.7963 12.3552 3.11111C12.3552 3.42593 12.2453 3.68963 12.0256 3.90222C11.8051 4.11556 11.5321 4.22222 11.2067 4.22222H4.31559V19.7778H11.2067C11.5321 19.7778 11.8051 19.8844 12.0256 20.0978C12.2453 20.3104 12.3552 20.5741 12.3552 20.8889C12.3552 21.2037 12.2453 21.4674 12.0256 21.68C11.8051 21.8933 11.5321 22 11.2067 22H4.31559Z" fill="white"/>
</svg>
