<svg width="25" height="24" viewBox="0 0 25 24" fill="none" xmlns="http://www.w3.org/2000/svg">
<g clip-path="url(#clip0_19_261)">
<path d="M13.1211 6.00098C13.1211 5.44869 12.6692 5.00098 12.1118 5.00098C11.5545 5.00098 11.1026 5.44869 11.1026 6.00098V11.5868L8.37041 14.2939C7.97627 14.6844 7.97627 15.3176 8.37041 15.7081C8.76455 16.0986 9.40358 16.0986 9.79772 15.7081L12.8255 12.7081C13.0148 12.5205 13.1211 12.2662 13.1211 12.001V6.00098Z" fill="white"/>
<path fill-rule="evenodd" clip-rule="evenodd" d="M12.1118 0.000976562C5.42306 0.000976562 0.000732422 5.37356 0.000732422 12.001C0.000732422 18.6284 5.42306 24.001 12.1118 24.001C18.8006 24.001 24.223 18.6284 24.223 12.001C24.223 5.37356 18.8006 0.000976562 12.1118 0.000976562ZM5.45148 4.4875C6.99151 3.1462 8.94732 2.26238 11.1026 2.05035V3.00098C11.1026 3.55326 11.5544 4.00098 12.1118 4.00098C12.6692 4.00098 13.1211 3.55326 13.1211 3.00098V2.05035C15.2764 2.26238 17.2322 3.14622 18.7722 4.48753L18.1062 5.14746C17.7121 5.53799 17.7121 6.17115 18.1062 6.56167C18.5003 6.9522 19.1394 6.9522 19.5335 6.56167L20.1491 5.95174C21.2473 7.38205 21.9656 9.11439 22.1546 11.001H21.1952C20.6378 11.001 20.1859 11.4487 20.1859 12.001C20.1859 12.5533 20.6378 13.001 21.1952 13.001H22.1546C21.9656 14.8876 21.2473 16.6199 20.1491 18.0502L19.5335 17.4404C19.1394 17.0498 18.5004 17.0498 18.1062 17.4404C17.7121 17.8309 17.7121 18.464 18.1062 18.8546L18.7722 19.5145C17.2322 20.8557 15.2764 21.7396 13.1211 21.9516V21.001C13.1211 20.4487 12.6692 20.001 12.1118 20.001C11.5544 20.001 11.1026 20.4487 11.1026 21.001V21.9516C8.94733 21.7396 6.99154 20.8558 5.45151 19.5145L6.11753 18.8546C6.51167 18.464 6.51167 17.8309 6.11753 17.4404C5.72339 17.0498 5.08437 17.0498 4.69023 17.4404L4.07465 18.0503C2.97637 16.62 2.25813 14.8876 2.06908 13.001H3.02851C3.58591 13.001 4.03777 12.5533 4.03777 12.001C4.03777 11.4487 3.58591 11.001 3.02851 11.001H2.06908C2.25813 9.11438 2.97636 7.38203 4.07462 5.9517L4.69024 6.56167C5.08438 6.9522 5.72341 6.9522 6.11755 6.56167C6.51169 6.17115 6.51169 5.53799 6.11755 5.14746L5.45148 4.4875Z" fill="white"/>
</g>
<defs>
<clipPath id="clip0_19_261">
<rect width="24.2222" height="24" fill="white"/>
</clipPath>
</defs>
</svg>
