<svg width="25" height="24" viewBox="0 0 25 24" fill="none" xmlns="http://www.w3.org/2000/svg">
<g clip-path="url(#clip0_3005_27006)">
<path d="M10.5413 4.6679C8.13051 2.44403 4.24974 2.44403 1.83898 4.6679C-0.612993 6.92978 -0.612993 10.6286 1.83898 12.8905L11.4088 21.7184C11.4784 21.7854 11.5585 21.843 11.6473 21.8884C11.7373 21.9345 11.8328 21.9664 11.9303 21.9839C12.0844 22.0119 12.2383 22.0032 12.3818 21.9635C12.5029 21.9302 12.6191 21.874 12.7233 21.7951C12.7543 21.7717 12.784 21.7465 12.8123 21.7195L22.3832 12.8905C24.8352 10.6286 24.8352 6.92978 22.3832 4.6679C19.9725 2.44403 16.0917 2.44403 13.681 4.6679L12.1111 6.11604L10.5413 4.6679ZM14.0779 17.8194L15.1001 14.2747C15.2007 13.9255 15.1025 13.5497 14.8433 13.2929L11.445 9.92578L12.8992 8.12469C12.9023 8.12089 12.9053 8.11707 12.9083 8.11324L15.0564 6.1317C16.6921 4.62277 19.3721 4.62277 21.0078 6.1317C22.6023 7.60262 22.6023 9.95581 21.0078 11.4267L14.0779 17.8194ZM10.7463 7.58962L9.30449 9.37531C8.98323 9.7732 9.0153 10.3468 9.37894 10.7071L12.9961 14.291L11.5932 19.1559L3.21442 11.4267C1.61988 9.95581 1.61988 7.60262 3.21442 6.1317C4.85017 4.62277 7.53008 4.62277 9.16583 6.1317L10.7463 7.58962Z" fill="white"/>
</g>
<defs>
<clipPath id="clip0_3005_27006">
<rect width="24.2222" height="24" fill="white"/>
</clipPath>
</defs>
</svg>
