<svg width="25" height="24" viewBox="0 0 25 24" fill="none" xmlns="http://www.w3.org/2000/svg">
<path d="M22.0753 13.0229L13.7545 20.8926C13.2817 21.3141 12.5726 21.3141 12.1471 20.8457C11.7216 20.3773 11.7216 19.6746 12.1944 19.253L18.4822 13.3508L2.40803 13.3508C1.74615 13.3508 1.27338 12.8355 1.27338 12.2265C1.27338 11.5707 1.74615 11.1023 2.40803 11.1023L18.4822 11.1023L12.1944 5.15321C11.7216 4.73162 11.7216 4.02897 12.1471 3.56054C12.5726 3.0921 13.329 3.0921 13.7545 3.51369L22.0753 11.3834C22.3117 11.6176 22.4535 11.8986 22.4535 12.2265C22.4535 12.5076 22.3117 12.7887 22.0753 13.0229Z" fill="white"/>
</svg>
