<svg width="25" height="24" viewBox="0 0 25 24" fill="none" xmlns="http://www.w3.org/2000/svg">
<path d="M7.62555 1C8.24488 1 8.74695 1.54721 8.74695 2.22222V21.7778C8.74695 22.4528 8.24488 23 7.62555 23C7.00622 23 6.50415 22.4528 6.50415 21.7778V2.22222C6.50415 1.54721 7.00622 1 7.62555 1Z" fill="white"/>
<path d="M16.5967 3.44444C17.2161 3.44444 17.7181 3.99165 17.7181 4.66667V21.7778C17.7181 22.4528 17.2161 23 16.5967 23C15.9774 23 15.4753 22.4528 15.4753 21.7778V4.66667C15.4753 3.99165 15.9774 3.44444 16.5967 3.44444Z" fill="white"/>
<path d="M3.13995 8.33333C3.75929 8.33333 4.26135 8.88054 4.26135 9.55556V18.1111C4.26135 18.7861 3.75929 19.3333 3.13995 19.3333C2.52062 19.3333 2.01855 18.7861 2.01855 18.1111V9.55556C2.01855 8.88054 2.52062 8.33333 3.13995 8.33333Z" fill="white"/>
<path d="M12.1111 4.66667C12.7305 4.66667 13.2325 5.21387 13.2325 5.88889V18.1111C13.2325 18.7861 12.7305 19.3333 12.1111 19.3333C11.4918 19.3333 10.9897 18.7861 10.9897 18.1111V5.88889C10.9897 5.21387 11.4918 4.66667 12.1111 4.66667Z" fill="white"/>
<path d="M21.0823 9.55556C21.7017 9.55556 22.2037 10.1028 22.2037 10.7778V16.8889C22.2037 17.5639 21.7017 18.1111 21.0823 18.1111C20.463 18.1111 19.9609 17.5639 19.9609 16.8889V10.7778C19.9609 10.1028 20.463 9.55556 21.0823 9.55556Z" fill="white"/>
</svg>
