<svg width="25" height="24" viewBox="0 0 25 24" fill="none" xmlns="http://www.w3.org/2000/svg">
<path fill-rule="evenodd" clip-rule="evenodd" d="M14.6343 4.5C14.6343 5.88071 13.5047 7 12.1112 7C10.7177 7 9.58801 5.88071 9.58801 4.5C9.58801 3.11929 10.7177 2 12.1112 2C13.5047 2 14.6343 3.11929 14.6343 4.5ZM14.6343 19.5C14.6343 20.8807 13.5047 22 12.1112 22C10.7177 22 9.58801 20.8807 9.58801 19.5C9.58801 18.1193 10.7177 17 12.1112 17C13.5047 17 14.6343 18.1193 14.6343 19.5ZM12.1112 14.5C13.5047 14.5 14.6343 13.3807 14.6343 12C14.6343 10.6193 13.5047 9.5 12.1112 9.5C10.7177 9.5 9.58801 10.6193 9.58801 12C9.58801 13.3807 10.7177 14.5 12.1112 14.5Z" fill="white"/>
</svg>
