<svg width="25" height="24" viewBox="0 0 25 24" fill="none" xmlns="http://www.w3.org/2000/svg">
<path d="M1.65092 11.3839L9.97168 3.51418C10.4444 3.09259 11.1536 3.09259 11.5791 3.56102C12.0046 4.02946 12.0046 4.73211 11.5318 5.1537L5.24398 11.056L21.3182 11.056C21.98 11.056 22.4528 11.5712 22.4528 12.1802C22.4528 12.836 21.98 13.3044 21.3182 13.3044H5.24398L11.5318 19.2535C12.0046 19.6751 12.0046 20.3778 11.5791 20.8462C11.1536 21.3146 10.3972 21.3146 9.97168 20.893L1.65092 13.0234C1.41454 12.7892 1.27271 12.5081 1.27271 12.1802C1.27271 11.8991 1.41454 11.6181 1.65092 11.3839Z" fill="white"/>
</svg>
