<svg width="25" height="24" viewBox="0 0 25 24" fill="none" xmlns="http://www.w3.org/2000/svg">
<path d="M7.36104 23.8569C6.61593 23.8569 6.01224 23.6382 5.54999 23.2007C5.09465 22.77 4.84972 22.1855 4.81523 21.4473L4.10116 6.52783H2.85929C2.65232 6.52783 2.46949 6.45264 2.3108 6.30225C2.15902 6.14502 2.08313 5.96045 2.08313 5.74854C2.08313 5.54346 2.15902 5.36572 2.3108 5.21533C2.46949 5.05811 2.65232 4.97949 2.85929 4.97949H21.3527C21.5666 4.97949 21.7494 5.05469 21.9012 5.20508C22.053 5.35547 22.1289 5.53662 22.1289 5.74854C22.1289 5.96045 22.053 6.14502 21.9012 6.30225C21.7494 6.45264 21.5666 6.52783 21.3527 6.52783H20.1108L19.3968 21.437C19.3623 22.1753 19.1139 22.7632 18.6516 23.2007C18.1963 23.6382 17.5961 23.8569 16.8509 23.8569H7.36104ZM7.50593 22.3086H16.6854C16.9889 22.3086 17.2407 22.2095 17.4408 22.0112C17.6478 21.8198 17.7582 21.5703 17.772 21.2627L18.4447 6.52783H5.71558L6.44 21.2627C6.45379 21.5635 6.56073 21.813 6.76081 22.0112C6.96779 22.2095 7.21616 22.3086 7.50593 22.3086ZM9.03756 20.5552C8.85128 20.5552 8.69604 20.5005 8.57186 20.3911C8.45457 20.2817 8.39593 20.1348 8.39593 19.9502L8.07511 8.98877C8.07511 8.81104 8.13376 8.66748 8.25104 8.55811C8.36833 8.44189 8.52356 8.38379 8.71674 8.38379C8.90302 8.38379 9.0548 8.43848 9.17209 8.54785C9.29628 8.65723 9.36182 8.80078 9.36872 8.97852L9.67919 19.9502C9.68608 20.1279 9.63089 20.2749 9.5136 20.3911C9.39632 20.5005 9.23763 20.5552 9.03756 20.5552ZM12.1112 20.5552C11.9111 20.5552 11.749 20.5005 11.6248 20.3911C11.5006 20.2749 11.4385 20.1279 11.4385 19.9502V8.98877C11.4385 8.81104 11.5006 8.66748 11.6248 8.55811C11.749 8.44189 11.9111 8.38379 12.1112 8.38379C12.3043 8.38379 12.463 8.44189 12.5872 8.55811C12.7114 8.66748 12.7735 8.81104 12.7735 8.98877V19.9502C12.7735 20.1279 12.7114 20.2749 12.5872 20.3911C12.463 20.5005 12.3043 20.5552 12.1112 20.5552ZM15.1744 20.5552C14.9743 20.5552 14.8157 20.5005 14.6984 20.3911C14.5811 20.2749 14.5259 20.1279 14.5328 19.9502L14.8433 8.98877C14.8502 8.8042 14.9123 8.65723 15.0295 8.54785C15.1537 8.43848 15.3055 8.38379 15.4849 8.38379C15.685 8.38379 15.8436 8.44189 15.9609 8.55811C16.0782 8.66748 16.1369 8.81104 16.1369 8.98877L15.8161 19.9502C15.8161 20.1348 15.754 20.2817 15.6298 20.3911C15.5125 20.5005 15.3607 20.5552 15.1744 20.5552ZM7.56802 5.70752V3.41064C7.56802 2.67236 7.79569 2.09131 8.25104 1.66748C8.70639 1.23682 9.33422 1.02148 10.1345 1.02148H14.0567C14.8571 1.02148 15.4849 1.23682 15.9402 1.66748C16.3956 2.09131 16.6233 2.67236 16.6233 3.41064V5.70752H14.9778V3.51318C14.9778 3.22607 14.8847 2.99365 14.6984 2.81592C14.5121 2.63818 14.2637 2.54932 13.9533 2.54932H10.238C9.92756 2.54932 9.67919 2.63818 9.49291 2.81592C9.30663 2.99365 9.21349 3.22607 9.21349 3.51318V5.70752H7.56802Z" fill="white"/>
</svg>
