<svg width="25" height="24" viewBox="0 0 25 24" fill="none" xmlns="http://www.w3.org/2000/svg">
<g clip-path="url(#clip0_3005_27009)">
<path fill-rule="evenodd" clip-rule="evenodd" d="M19.176 7C19.176 9.19582 18.1556 11.1555 16.5589 12.4389C18.9624 13.2631 20.8921 15.188 21.6531 17.7012L23.1704 22.7127C23.3306 23.2416 23.0276 23.7991 22.4938 23.9578C21.9599 24.1165 21.3972 23.8163 21.237 23.2873L19.7197 18.2759C18.9513 15.738 16.5937 14 13.9195 14H10.3028C7.62859 14 5.27103 15.738 4.5026 18.2759L2.98525 23.2873C2.82509 23.8163 2.26244 24.1165 1.72855 23.9578C1.19466 23.7991 0.891696 23.2416 1.05186 22.7127L2.56921 17.7012C3.33017 15.188 5.25993 13.2631 7.66336 12.4389C6.06675 11.1555 5.04634 9.19582 5.04634 7C5.04634 3.13401 8.20936 0 12.1112 0C16.0129 0 19.176 3.13401 19.176 7ZM12.1112 2C9.32416 2 7.06485 4.23858 7.06485 7C7.06485 9.76142 9.32416 12 12.1112 12C14.8981 12 17.1574 9.76142 17.1574 7C17.1574 4.23858 14.8981 2 12.1112 2Z" fill="white"/>
<path d="M13.2015 18.9196L12.1111 16L11.0208 18.9196L8.07409 20L11.0208 21.0804L12.1111 24L13.2015 21.0804L16.1482 20L13.2015 18.9196Z" fill="white"/>
</g>
<defs>
<clipPath id="clip0_3005_27009">
<rect width="24.2222" height="24" fill="white"/>
</clipPath>
</defs>
</svg>
