<svg width="25" height="24" viewBox="0 0 25 24" fill="none" xmlns="http://www.w3.org/2000/svg">
<g clip-path="url(#clip0_3267_32107)">
<g clip-path="url(#clip1_3267_32107)">
<path fill-rule="evenodd" clip-rule="evenodd" d="M3.02783 3C3.02783 1.34314 4.38341 0 6.05561 0H18.1667C19.8389 0 21.1945 1.34315 21.1945 3V23C21.1945 23.3788 20.9785 23.725 20.6366 23.8944C20.2947 24.0638 19.8855 24.0273 19.5797 23.8L12.1112 18.25L4.64265 23.8C4.33682 24.0273 3.92766 24.0638 3.58574 23.8944C3.24382 23.725 3.02783 23.3788 3.02783 23V3ZM6.05561 2C5.49821 2 5.04635 2.44772 5.04635 3V21L11.5056 16.2C11.8645 15.9333 12.3579 15.9333 12.7167 16.2L19.176 21V3C19.176 2.44772 18.7241 2 18.1667 2H6.05561Z" fill="white"/>
</g>
</g>
<defs>
<clipPath id="clip0_3267_32107">
<rect width="24.2222" height="24" fill="white"/>
</clipPath>
<clipPath id="clip1_3267_32107">
<rect width="24.2222" height="24" fill="white"/>
</clipPath>
</defs>
</svg>
