<svg width="25" height="24" viewBox="0 0 25 24" fill="none" xmlns="http://www.w3.org/2000/svg">
<path fill-rule="evenodd" clip-rule="evenodd" d="M13.1203 3C13.1203 2.44772 12.6685 2 12.1111 2C11.5537 2 11.1018 2.44772 11.1018 3V11.0024H3.02549C2.4681 11.0024 2.01624 11.4502 2.01624 12.0024C2.01624 12.5547 2.4681 13.0024 3.02549 13.0024H11.1018V21.0042C11.1018 21.5565 11.5537 22.0042 12.1111 22.0042C12.6685 22.0042 13.1203 21.5565 13.1203 21.0042V13.0024H21.1964C21.7538 13.0024 22.2056 12.5547 22.2056 12.0024C22.2056 11.4502 21.7538 11.0024 21.1964 11.0024H13.1203V3Z" fill="white"/>
</svg>
