<svg width="25" height="24" viewBox="0 0 25 24" fill="none" xmlns="http://www.w3.org/2000/svg">
<path d="M19 11.667H6V19C6 19.3682 6.2988 19.667 6.66699 19.667H18.333C18.7012 19.667 19 19.3682 19 19V11.667ZM14.833 7.33301V6.66699H10.167V7.33301C10.167 7.88518 9.71913 8.33283 9.16699 8.33301C8.61471 8.33301 8.16699 7.88529 8.16699 7.33301V6.66699H6.66699C6.29891 6.66699 6.00018 6.96497 6 7.33301V9.66699H19V7.33301C18.9998 6.96497 18.7011 6.66699 18.333 6.66699H16.833V7.33301C16.833 7.88529 16.3853 8.33301 15.833 8.33301C15.2809 8.33283 14.833 7.88518 14.833 7.33301ZM21 19C21 20.4728 19.8058 21.667 18.333 21.667H6.66699C5.19423 21.667 4 20.4728 4 19V7.33301C4.00018 5.8604 5.19434 4.66699 6.66699 4.66699H8.16699V4C8.16699 3.44772 8.61471 3 9.16699 3C9.71913 3.00018 10.167 3.44782 10.167 4V4.66699H14.833V4C14.833 3.44782 15.2809 3.00018 15.833 3C16.3853 3 16.833 3.44772 16.833 4V4.66699H18.333C19.8057 4.66699 20.9998 5.8604 21 7.33301V19Z" fill="white"/>
</svg>
