<svg width="25" height="24" viewBox="0 0 25 24" fill="none" xmlns="http://www.w3.org/2000/svg">
<g clip-path="url(#clip0_427_11334)">
<path fill-rule="evenodd" clip-rule="evenodd" d="M22.2037 0C22.6668 0 23.0705 0.312297 23.1829 0.757464L23.6338 2.54479C24.5893 6.33167 21.6986 10 17.7591 10H13.1204V23C13.1204 23.5523 12.6685 24 12.1111 24C11.5537 24 11.1019 23.5523 11.1019 23L11.1019 20H6.4632C2.52363 20 -0.367036 16.3317 0.58845 12.5448L1.03942 10.7575C1.15174 10.3123 1.55543 10 2.01854 10H7.06484C8.61578 10 10.0305 10.5777 11.1019 11.5278V6C11.1019 2.68629 13.813 0 17.1574 0H22.2037ZM11.1019 15.9972C11.1004 13.7894 9.29349 12 7.06484 12H2.80655L2.5467 13.0299C1.90971 15.5544 3.83682 18 6.4632 18H11.1019L11.1019 15.9972ZM13.1204 6V8H17.7591C20.3854 8 22.3126 5.55445 21.6756 3.02986L21.4157 2H17.1574C14.9278 2 13.1204 3.79086 13.1204 6Z" fill="white"/>
</g>
<defs>
<clipPath id="clip0_427_11334">
<rect width="24.2222" height="24" fill="white"/>
</clipPath>
</defs>
</svg>
