<svg width="25" height="24" viewBox="0 0 25 24" fill="none" xmlns="http://www.w3.org/2000/svg">
<g clip-path="url(#clip0_2792_18624)">
<mask id="mask0_2792_18624" style="mask-type:alpha" maskUnits="userSpaceOnUse" x="0" y="3" width="25" height="17">
<path d="M24.2227 3V20H9.08301V12H0V3H24.2227Z" fill="#D9D9D9"/>
</mask>
<g mask="url(#mask0_2792_18624)">
<path d="M7.06481 4C3.16303 4 0 7.13401 0 11V17C0 18.6569 1.35558 20 3.02778 20H11.1019C14.2044 20 16.8399 18.0184 17.7894 15.2628L21.5654 16.5099C22.8724 16.9416 24.2222 15.9777 24.2222 14.6126V9.38743C24.2222 8.02231 22.8724 7.05837 21.5654 7.49006L18.1667 8.61257V7C18.1667 5.34315 16.8111 4 15.1389 4H7.06481ZM18.1667 10.7208L22.2037 9.38743V14.6126L18.1667 13.2792V10.7208ZM16.1481 7V13C16.1481 15.7614 13.8888 18 11.1019 18H3.02778C2.47038 18 2.01852 17.5523 2.01852 17V11C2.01852 8.23858 4.27782 6 7.06481 6H15.1389C15.6963 6 16.1481 6.44772 16.1481 7Z" fill="white"/>
</g>
<mask id="mask1_2792_18624" style="mask-type:alpha" maskUnits="userSpaceOnUse" x="0" y="12" width="10" height="8">
<rect y="12" width="9.08333" height="8" fill="#D9D9D9"/>
</mask>
<g mask="url(#mask1_2792_18624)">
<path d="M7.06481 20C3.16303 20 0 16.866 0 13V7C0 5.34315 1.35558 4 3.02778 4H11.1019C14.2044 4 16.8399 5.98163 17.7894 8.73718L21.5654 7.49006C22.8724 7.05837 24.2222 8.02231 24.2222 9.38743V14.6126C24.2222 15.9777 22.8724 16.9416 21.5654 16.5099L18.1667 15.3874V17C18.1667 18.6569 16.8111 20 15.1389 20H7.06481ZM18.1667 13.2792L22.2037 14.6126V9.38743L18.1667 10.7208V13.2792ZM16.1481 17V11C16.1481 8.23858 13.8888 6 11.1019 6H3.02778C2.47038 6 2.01852 6.44772 2.01852 7V13C2.01852 15.7614 4.27782 18 7.06481 18H15.1389C15.6963 18 16.1481 17.5523 16.1481 17Z" fill="white"/>
</g>
</g>
<defs>
<clipPath id="clip0_2792_18624">
<rect width="24.2222" height="24" fill="white"/>
</clipPath>
</defs>
</svg>
