<svg width="25" height="24" viewBox="0 0 25 24" fill="none" xmlns="http://www.w3.org/2000/svg">
<path d="M19.4716 3.29289C19.8657 2.90237 20.5048 2.90237 20.8989 3.29289C21.293 3.68342 21.293 4.31658 20.8989 4.70711L13.5385 12L20.8989 19.2929C21.293 19.6834 21.293 20.3166 20.8989 20.7071C20.5048 21.0976 19.8657 21.0976 19.4716 20.7071L12.1112 13.4142L4.75074 20.7071C4.3566 21.0976 3.71758 21.0976 3.32344 20.7071C2.9293 20.3166 2.9293 19.6834 3.32344 19.2929L10.6839 12L3.32344 4.70711C2.9293 4.31658 2.9293 3.68342 3.32344 3.29289C3.71758 2.90237 4.35661 2.90237 4.75075 3.29289L12.1112 10.5858L19.4716 3.29289Z" fill="white"/>
</svg>
