<svg width="25" height="24" viewBox="0 0 25 24" fill="none" xmlns="http://www.w3.org/2000/svg">
<g clip-path="url(#clip0_1702_18896)">
<path d="M11.1018 1.5C10.8231 1.5 10.5972 1.72386 10.5972 2V4H8.57869C8.29999 4 8.07406 4.22386 8.07406 4.5V6.5C8.07406 6.77614 8.29999 7 8.57869 7H10.5972V9C10.5972 9.27614 10.8231 9.5 11.1018 9.5H13.1204C13.3991 9.5 13.625 9.27614 13.625 9V7H15.6435C15.9222 7 16.1481 6.77614 16.1481 6.5V4.5C16.1481 4.22386 15.9222 4 15.6435 4H13.625V2C13.625 1.72386 13.3991 1.5 13.1204 1.5H11.1018Z" fill="white"/>
<path d="M18.1266 13.081C19.384 12.3143 20.9635 12.2889 22.2453 13.0147L22.9022 13.3866C24.1537 14.0952 24.2739 15.8376 23.1315 16.7083L18.8611 19.9631C17.979 20.6355 16.8972 21 15.7843 21H7.09281C5.29954 21 3.54638 21.5259 2.05429 22.5115L1.56908 22.8321C1.1053 23.1384 0.478679 23.0142 0.16949 22.5547C-0.139699 22.0952 -0.0143755 21.4743 0.449408 21.1679L0.934615 20.8474C2.75829 19.6428 4.90103 19 7.09281 19H15.7843C16.4521 19 17.1011 18.7813 17.6304 18.3779L21.9008 15.1231L21.2439 14.7512C20.6029 14.3883 19.8132 14.401 19.1845 14.7843L17.1834 16.0045C15.012 17.3285 12.379 17.6873 9.92746 16.9933L9.81531 16.9615C9.27936 16.8098 8.96902 16.2563 9.12215 15.7253C9.27528 15.1942 9.83389 14.8868 10.3698 15.0385L10.482 15.0702C11.7101 15.4179 12.9968 15.4259 14.2083 15.1123C14.2328 15.055 14.263 14.999 14.2991 14.9453L14.814 14.1801C15.2277 13.5652 14.6777 12.7635 13.9485 12.9183L12.847 13.1522C11.6568 13.4049 10.4185 13.3141 9.27882 12.8906C7.97011 12.4044 6.50524 12.5715 5.34228 13.3397L1.56908 15.8321C1.1053 16.1384 0.478679 16.0142 0.16949 15.5547C-0.139699 15.0952 -0.0143755 14.4743 0.449408 14.1679L4.22261 11.6756C5.92573 10.5506 8.071 10.3059 9.98757 11.018C10.7658 11.3071 11.6114 11.3691 12.4241 11.1966L13.5256 10.9627C15.4507 10.5539 17.0115 12.0893 16.9807 13.7797L18.1266 13.081Z" fill="white"/>
</g>
<defs>
<clipPath id="clip0_1702_18896">
<rect width="24.2222" height="24" fill="white"/>
</clipPath>
</defs>
</svg>
