<svg width="25" height="24" viewBox="0 0 25 24" fill="none" xmlns="http://www.w3.org/2000/svg">
<path d="M21.1945 18V20H8.7719V18H21.1945ZM21.1945 4H3.0278V21.3848L6.27832 18.8545C6.98945 18.301 7.86758 18.0001 8.7719 18V20C8.31974 20.0001 7.88066 20.1509 7.52511 20.4277L4.27459 22.958L4.14941 23.0488C2.83145 23.93 1.00928 23.0016 1.00928 21.3848V4C1.00928 2.96435 1.80379 2.113 2.8218 2.01074L3.0278 2H21.1945C22.3093 2 23.213 2.89543 23.213 4V18C23.213 19.1046 22.3093 20 21.1945 20V4Z" fill="white"/>
<path d="M7.06677 9.00098C7.06677 8.44869 7.51863 8.00098 8.07603 8.00098H16.1501C16.7075 8.00098 17.1594 8.44869 17.1594 9.00098C17.1594 9.55326 16.7075 10.001 16.1501 10.001H8.07603C7.51863 10.001 7.06677 9.55326 7.06677 9.00098Z" fill="white"/>
<path d="M8.07603 12.001C7.51863 12.001 7.06677 12.4487 7.06677 13.001C7.06677 13.5533 7.51863 14.001 8.07603 14.001H13.1223C13.6797 14.001 14.1316 13.5533 14.1316 13.001C14.1316 12.4487 13.6797 12.001 13.1223 12.001H8.07603Z" fill="white"/>
</svg>
