<svg width="25" height="24" viewBox="0 0 25 24" fill="none" xmlns="http://www.w3.org/2000/svg">
<g clip-path="url(#clip0_3005_27010)">
<path d="M8.65147 18.0748C8.1943 18.3908 7.56518 18.2797 7.24629 17.8267C6.92741 17.3738 7.03951 16.7504 7.49668 16.4345C8.80489 15.5303 10.397 14.9999 12.1111 14.9999C13.8252 14.9999 15.4173 15.5303 16.7255 16.4345C17.1827 16.7504 17.2948 17.3738 16.9759 17.8267C16.657 18.2797 16.0279 18.3908 15.5708 18.0748C14.5903 17.3972 13.399 17 12.1111 17C10.8232 17 9.63192 17.3972 8.65147 18.0748Z" fill="white"/>
<path d="M14.0801 11.0849C14.5629 10.8088 15.1801 10.9726 15.4588 11.4509C16.0162 12.4075 17.2507 12.7353 18.2162 12.183C18.6989 11.9068 19.3161 12.0707 19.5948 12.549C19.8735 13.0273 19.7081 13.6389 19.2254 13.915C17.2945 15.0196 14.8255 14.3641 13.7107 12.4509C13.432 11.9726 13.5974 11.361 14.0801 11.0849Z" fill="white"/>
<path d="M8.76341 11.4509C9.04211 10.9726 9.65937 10.8088 10.1421 11.0849C10.6248 11.361 10.7902 11.9726 10.5115 12.4509C9.39671 14.3641 6.92769 15.0196 4.99681 13.915C4.51409 13.6389 4.34869 13.0273 4.62739 12.549C4.90609 12.0707 5.52335 11.9068 6.00607 12.183C6.97151 12.7353 8.20602 12.4075 8.76341 11.4509Z" fill="white"/>
<path d="M12.1111 0C5.42233 0 0 5.37258 0 12C0 18.6274 5.42233 24 12.1111 24C18.7999 24 24.2222 18.6274 24.2222 12C24.2222 5.37258 18.7999 0 12.1111 0ZM2.01852 12C2.01852 6.47715 6.53713 2 12.1111 2C17.6851 2 22.2037 6.47715 22.2037 12C22.2037 17.5228 17.6851 22 12.1111 22C6.53713 22 2.01852 17.5228 2.01852 12Z" fill="white"/>
</g>
<defs>
<clipPath id="clip0_3005_27010">
<rect width="24.2222" height="24" fill="white"/>
</clipPath>
</defs>
</svg>
