<svg width="25" height="24" viewBox="0 0 25 24" fill="none" xmlns="http://www.w3.org/2000/svg">
<g clip-path="url(#clip0_19_307)">
<path fill-rule="evenodd" clip-rule="evenodd" d="M1.72291 0.292893C1.32877 -0.0976311 0.689745 -0.0976311 0.295605 0.292893C-0.0985351 0.683417 -0.0985351 1.31658 0.295605 1.70711L4.7142 6.08516L3.73291 6.93591C3.6933 6.97025 3.67361 6.98727 3.65903 6.99945L3.65776 7.00051L3.65611 7.00054C3.63704 7.00089 3.6109 7.00092 3.55827 7.00092L3.46929 7.00087C3.06544 7.00054 2.71757 7.00025 2.40744 7.06458C1.2304 7.30874 0.310768 8.21994 0.0643473 9.38618C-0.000580721 9.69346 -0.000289798 10.0381 4.79204e-05 10.4383V13.5636C-0.000289798 13.9637 -0.000580721 14.3084 0.0643473 14.6157C0.310768 15.7819 1.2304 16.6931 2.40744 16.9373C2.71757 17.0016 3.06543 17.0013 3.46929 17.001L3.55827 17.0009C3.6109 17.0009 3.63704 17.001 3.65611 17.0013L3.65776 17.0013L3.65903 17.0024C3.67361 17.0146 3.6933 17.0316 3.73291 17.0659L7.36845 20.2178C8.01607 20.7794 8.55721 21.2485 9.01002 21.571C9.45187 21.8858 9.99644 22.2038 10.6323 22.195C11.3354 22.1854 12.0026 21.8854 12.473 21.3674C12.8983 20.8991 13.0154 20.2836 13.0673 19.7469C13.1205 19.1969 13.1205 18.4844 13.1205 17.6318V14.4143L17.4143 18.6687C16.9641 18.8269 16.4933 18.9426 16.0068 19.0108C15.4549 19.0882 15.0708 19.5942 15.1489 20.1411C15.2271 20.6879 15.7378 21.0685 16.2897 20.9911C17.2322 20.8589 18.1292 20.5872 18.9579 20.1982L22.4993 23.7071C22.8934 24.0976 23.5325 24.0976 23.9266 23.7071C24.3208 23.3166 24.3208 22.6834 23.9266 22.2929L1.72291 0.292893ZM11.1019 12.4143V17.5797C11.1019 18.498 11.1008 19.1132 11.058 19.556C11.0239 19.9082 10.9717 20.0217 10.9638 20.0388C10.8733 20.1334 10.7488 20.1897 10.6173 20.1949C10.5991 20.1895 10.4782 20.1536 10.1882 19.9471C9.82368 19.6875 9.35562 19.2831 8.65811 18.6784L5.04669 15.5474C4.98919 15.4974 4.91705 15.4348 4.83795 15.3783C4.54695 15.1705 4.20534 15.0434 3.84827 15.0098C3.7512 15.0007 3.65525 15.0008 3.57878 15.0009L3.55827 15.0009C3.01443 15.0009 2.89757 14.9956 2.82106 14.9797C2.42872 14.8983 2.12217 14.5946 2.04003 14.2058C2.02401 14.13 2.01862 14.0142 2.01862 13.4754V10.5265C2.01862 9.9876 2.02401 9.87182 2.04003 9.79601C2.12217 9.40726 2.42872 9.10353 2.82106 9.02214C2.89757 9.00627 3.01443 9.00092 3.55827 9.00092L3.57878 9.00094C3.65526 9.00102 3.7512 9.00112 3.84827 8.99201C4.20534 8.9585 4.54695 8.83132 4.83795 8.62357C4.91706 8.56709 4.98919 8.50441 5.04669 8.45445L6.14468 7.50252L11.1019 12.4143Z" fill="white"/>
<path fill-rule="evenodd" clip-rule="evenodd" d="M11.1019 6.42219V6.76606L13.1205 8.76606V6.37008C13.1205 5.51744 13.1205 4.80499 13.0673 4.25498C13.0154 3.71826 12.8983 3.10279 12.473 2.63441C12.0026 2.11644 11.3354 1.81647 10.6323 1.80682C9.99644 1.79809 9.45187 2.11608 9.01002 2.4308C8.65037 2.68696 8.235 3.03565 7.75481 3.44963L9.18575 4.86744C9.60605 4.50659 9.92427 4.24275 10.1882 4.05474C10.4781 3.84825 10.5991 3.81237 10.6173 3.80697C10.7488 3.81214 10.8733 3.86843 10.9638 3.96307C10.9717 3.98021 11.0239 4.09364 11.058 4.4458C11.1008 4.88861 11.1019 5.50387 11.1019 6.42219Z" fill="white"/>
<path fill-rule="evenodd" clip-rule="evenodd" d="M17.0609 12.6704L18.5849 14.1803C18.9617 13.5415 19.176 12.7932 19.176 12.0009C19.176 10.2153 18.0876 8.65317 16.5024 8.06453C15.9805 7.87071 15.3988 8.13283 15.2032 8.64999C15.0076 9.16714 15.2721 9.7435 15.7941 9.93732C16.5608 10.222 17.1575 11.0165 17.1575 12.0009C17.1575 12.2364 17.1234 12.461 17.0609 12.6704Z" fill="white"/>
<path fill-rule="evenodd" clip-rule="evenodd" d="M20.7214 16.2972L22.1575 17.7202C23.4472 16.1603 24.2223 14.1704 24.2223 12.0009C24.2223 8.90932 22.6482 6.18221 20.254 4.54471C19.0978 3.75392 17.7483 3.21538 16.2897 3.01079C15.7378 2.93339 15.2271 3.31393 15.1489 3.86077C15.0708 4.4076 15.4549 4.91365 16.0068 4.99105C17.1481 5.15113 18.203 5.57214 19.1073 6.19065C20.9838 7.47404 22.2038 9.59977 22.2038 12.0009C22.2038 13.6148 21.6526 15.1043 20.7214 16.2972Z" fill="white"/>
</g>
<defs>
<clipPath id="clip0_19_307">
<rect width="24.2222" height="24" fill="white"/>
</clipPath>
</defs>
</svg>
