<svg width="25" height="24" viewBox="0 0 25 24" fill="none" xmlns="http://www.w3.org/2000/svg">
<path fill-rule="evenodd" clip-rule="evenodd" d="M11.5725 1C10.9131 1 10.3063 1.35689 9.99052 1.93049L8.09483 5.37404C7.57297 6.32199 6.83686 7.13747 5.94406 7.7567L5.56307 8.02095C3.34159 9.56172 2.01855 12.0795 2.01855 14.7663C2.01855 19.3136 5.73905 23 10.3285 23H18.1667C19.8389 23 21.1945 21.6569 21.1945 20C21.1945 19.4653 21.0533 18.9634 20.8059 18.5286C21.6465 17.9956 22.2037 17.0623 22.2037 16C22.2037 15.2316 21.9122 14.5308 21.4328 14C21.9122 13.4692 22.2037 12.7684 22.2037 12C22.2037 10.3431 20.8482 9 19.176 9H14.5768L15.4865 6.59618C16.5114 3.88843 14.4911 1 11.5725 1ZM12.9403 10.9841C13.0082 10.9964 13.0763 11.0016 13.1437 11H19.176C19.7334 11 20.1852 11.4477 20.1852 12C20.1852 12.5523 19.7334 13 19.176 13H17.1574C16.6 13 16.1482 13.4477 16.1482 14C16.1482 14.5523 16.6 15 17.1574 15H19.176C19.7334 15 20.1852 15.4477 20.1852 16C20.1852 16.5523 19.7334 17 19.176 17H17.1574C16.6 17 16.1482 17.4477 16.1482 18C16.1482 18.5523 16.6 19 17.1574 19H18.1667C18.7241 19 19.176 19.4477 19.176 20C19.176 20.5523 18.7241 21 18.1667 21H10.3285C6.85385 21 4.03707 18.2091 4.03707 14.7663C4.03707 12.7321 5.03874 10.8259 6.72061 9.65941L7.10161 9.39516C8.24949 8.59902 9.19592 7.55054 9.86688 6.33174L11.6991 3.00353C13.1395 3.08419 14.1116 4.53318 13.5965 5.89393L12.1836 9.62729C12.1585 9.68921 12.1394 9.75421 12.1272 9.82154C12.1056 9.93859 12.1058 10.0562 12.1256 10.1694C12.1509 10.3162 12.2085 10.4522 12.2909 10.5698C12.373 10.6874 12.4811 10.7884 12.6109 10.8634C12.7109 10.9215 12.822 10.963 12.9403 10.9841Z" fill="white"/>
</svg>
