<svg width="25" height="24" viewBox="0 0 25 24" fill="none" xmlns="http://www.w3.org/2000/svg">
<path d="M22.2709 1.17605C22.7302 1.48894 22.8465 2.11152 22.5308 2.56662C21.8012 3.61806 21.0808 4.60349 20.3713 5.52568C20.5447 5.70007 20.707 5.88332 20.8571 6.07543C21.7861 7.26439 22.2074 8.75306 21.9041 10.4339C21.6393 11.9016 20.8342 13.4582 19.4477 15.0769C19.8826 15.5505 20.2701 16.0366 20.5769 16.527C20.9581 17.1366 21.2497 17.8084 21.3064 18.5093C21.3658 19.2447 21.1604 19.9579 20.6443 20.5726C20.1511 21.1601 19.4224 21.6015 18.5211 21.9364C17.3083 22.387 16.165 22.3942 15.1317 21.9683C14.5182 21.7154 13.9854 21.3271 13.5212 20.8549C12.4865 21.6941 11.5352 22.3409 10.6701 22.7695C9.56554 23.3167 8.41979 23.6002 7.35807 23.2655C6.25621 22.9181 5.54774 22.0063 5.11057 20.8512C4.75279 19.9059 4.58361 18.558 4.53393 17.0697C4.04142 17.0412 3.58162 16.9462 3.16152 16.7817C1.75274 16.2301 1.00928 14.9844 1.00928 13.5001C1.00928 10.7583 1.98263 8.24646 3.89111 6.35549C4.4889 5.76318 5.17149 5.23852 5.93409 4.78921C6.00644 4.52402 6.08078 4.27017 6.1569 4.02935C6.39092 3.28896 6.65776 2.61971 6.9638 2.11554C7.11632 1.86427 7.3051 1.60925 7.54158 1.40697C7.77997 1.20305 8.13148 1.00009 8.57872 1.00009C9.21733 1.00009 9.5976 1.43823 9.76714 1.68737C9.95512 1.96361 10.0917 2.30315 10.199 2.63081C10.2571 2.808 10.3129 3.00211 10.367 3.21049C10.9027 3.11641 11.4585 3.04689 12.0337 3.00305C14.4371 2.81987 16.8865 3.25996 18.7628 4.31743C19.451 3.42306 20.1532 2.46295 20.8674 1.43356C21.1832 0.978459 21.8115 0.863166 22.2709 1.17605ZM17.4931 5.91314C16.0937 5.20474 14.2156 4.84266 12.1885 4.99715C11.6981 5.03453 11.2281 5.09244 10.7783 5.16938C10.7811 5.18463 10.7838 5.1999 10.7866 5.21519C10.9022 5.85794 11.0173 6.55096 11.138 7.27715C11.2216 7.78091 11.308 8.30064 11.399 8.83062C11.5175 8.91018 11.6403 8.99247 11.767 9.07734C12.2848 9.42413 12.8667 9.81397 13.4807 10.2359C14.7415 9.05358 16.0843 7.62364 17.4931 5.91314ZM11.9274 11.6048C11.9229 11.6017 11.9183 11.5986 11.9137 11.5955C11.915 11.6013 11.9162 11.6072 11.9174 11.6131C11.9207 11.6103 11.9241 11.6075 11.9274 11.6048ZM12.4144 13.7814C12.8167 15.3456 13.2937 16.7645 13.8763 17.8836C14.725 17.0991 15.6459 16.1871 16.6405 15.1498C15.7249 14.3426 14.6764 13.5422 13.6338 12.7941C13.2199 13.147 12.8133 13.4759 12.4144 13.7814ZM10.1411 12.9516C10.1327 12.9142 10.1244 12.8769 10.1161 12.8395C9.71673 11.0369 9.40597 9.16699 9.13467 7.53447C9.02322 6.86386 8.91843 6.2333 8.8169 5.66394C8.41453 5.80204 8.03388 5.95819 7.67483 6.13069C7.41314 7.23862 7.17939 8.52725 6.9925 9.88521C6.76884 11.5103 6.61567 13.2101 6.55976 14.7842C6.79728 14.71 7.04805 14.6201 7.31218 14.5126C8.15851 14.1682 9.10604 13.6572 10.1411 12.9516ZM6.54723 16.8629C6.58835 18.326 6.74434 19.4719 7.00057 20.149C7.32035 20.9939 7.68422 21.2695 7.97009 21.3597C8.2961 21.4624 8.85348 21.4334 9.76742 20.9807C10.5051 20.6152 11.3563 20.0339 12.3243 19.2414C11.6285 18.0354 11.0897 16.5594 10.656 15.0128C9.7448 15.5893 8.88352 16.0352 8.07906 16.3626C7.5533 16.5766 7.04112 16.744 6.54723 16.8629ZM4.53157 15.0632C4.5788 13.3139 4.74474 11.4152 4.99249 9.61498C5.07667 9.00335 5.17073 8.39982 5.27353 7.81455C3.80481 9.29368 3.0278 11.2646 3.0278 13.5001C3.0278 14.2658 3.35667 14.7076 3.90334 14.9216C4.07623 14.9893 4.28545 15.0395 4.53157 15.0632ZM15.0457 19.5372C15.3293 19.8099 15.617 20.0022 15.907 20.1217C16.3994 20.3247 17.0065 20.3632 17.8123 20.0638C18.5258 19.7987 18.9031 19.5192 19.0925 19.2936C19.2592 19.0951 19.3132 18.9029 19.2943 18.669C19.2726 18.4007 19.1481 18.0394 18.8611 17.5806C18.66 17.2591 18.3959 16.9163 18.0758 16.5567C17.0071 17.6708 15.9964 18.6697 15.0457 19.5372ZM18.0014 13.6735C19.1686 12.2841 19.7374 11.0781 19.9171 10.0819C20.1185 8.96589 19.8459 8.04831 19.261 7.29977C19.2123 7.23748 19.1612 7.17613 19.1078 7.11577C17.7406 8.78028 16.4187 10.2072 15.1543 11.4175C16.1329 12.1305 17.1196 12.8952 18.0014 13.6735Z" fill="white"/>
</svg>
