<svg width="25" height="24" viewBox="0 0 25 24" fill="none" xmlns="http://www.w3.org/2000/svg">
<g clip-path="url(#clip0_741_12427)">
<path d="M15.1389 12C15.1389 13.6569 13.7833 15 12.1111 15C10.4389 15 9.08333 13.6569 9.08333 12C9.08333 10.3431 10.4389 9 12.1111 9C13.7833 9 15.1389 10.3431 15.1389 12Z" fill="white"/>
<path fill-rule="evenodd" clip-rule="evenodd" d="M12.1111 1C12.6685 1 13.1204 1.44772 13.1204 2V4.03508C14.3028 4.11756 15.4434 4.34379 16.518 4.69532L17.7973 2.5C18.076 2.02171 18.6932 1.85783 19.1759 2.13398C19.6586 2.41012 19.824 3.02171 19.5453 3.5L18.3973 5.47014C21.0647 6.81472 23.143 8.99487 24.1567 11.6457C24.244 11.874 24.244 12.126 24.1567 12.3543C22.4353 16.8557 17.6441 20 12.1111 20C6.57816 20 1.78697 16.8557 0.0654836 12.3543C-0.0218276 12.126 -0.0218279 11.874 0.0654828 11.6457C1.12858 8.86584 3.36236 6.60357 6.21857 5.27976L5.18151 3.5C4.90281 3.02171 5.0682 2.41012 5.55092 2.13397C6.03365 1.85783 6.6509 2.02171 6.9296 2.5L8.13176 4.56311C9.07972 4.28674 10.075 4.10671 11.1019 4.03508V2C11.1019 1.44772 11.5537 1 12.1111 1ZM2.09796 12C3.60476 15.4567 7.47451 18 12.1111 18C16.7477 18 20.6175 15.4567 22.1243 12C20.6175 8.54333 16.7477 6 12.1111 6C7.47451 6 3.60475 8.54334 2.09796 12Z" fill="white"/>
</g>
<defs>
<clipPath id="clip0_741_12427">
<rect width="24.2222" height="24" fill="white"/>
</clipPath>
</defs>
</svg>
