<svg width="25" height="24" viewBox="0 0 25 24" fill="none" xmlns="http://www.w3.org/2000/svg">
<g clip-path="url(#clip0_19_295)">
<path fill-rule="evenodd" clip-rule="evenodd" d="M4.65881 0.816888C5.85969 0.0236443 7.45872 0.180524 8.47928 1.19172L10.1382 2.83543C11.3206 4.007 11.3206 5.9065 10.1382 7.07807L9.49562 7.71477C10.1746 9.17676 11.1503 10.5859 12.4168 11.8408C13.6833 13.0957 15.1055 14.0624 16.581 14.7352L17.2236 14.0985C18.406 12.9269 20.3231 12.9269 21.5055 14.0985L23.1645 15.7422C24.185 16.7534 24.3433 18.3377 23.5428 19.5276L21.0556 23.2241C20.8771 23.4895 20.5815 23.6545 20.26 23.6685C18.5526 23.7425 16.4534 23.0184 14.3122 21.8187C12.1392 20.6012 9.80095 18.8251 7.5844 16.6288C5.36785 14.4326 3.57531 12.1158 2.34648 9.96272C1.13566 7.8412 0.404855 5.76123 0.4796 4.06955C0.493676 3.75096 0.660264 3.45813 0.928057 3.28124L4.65881 0.816888ZM7.05197 2.60593C6.71179 2.26887 6.17878 2.21657 5.77848 2.48099L2.5066 4.64223C2.59509 5.74739 3.11242 7.2417 4.10352 8.97824C5.23019 10.9523 6.90514 13.1274 9.01171 15.2146C11.1183 17.3019 13.3135 18.9615 15.3058 20.0778C17.0585 21.0598 18.5666 21.5724 19.682 21.6601L21.8633 18.4182C22.1301 18.0216 22.0773 17.4934 21.7372 17.1564L20.0782 15.5127C19.6841 15.1221 19.0451 15.1221 18.6509 15.5127L17.5244 16.6288C17.2385 16.9121 16.8096 16.999 16.4345 16.8496C14.4876 16.0745 12.6187 14.8693 10.9895 13.255C9.36026 11.6407 8.14388 9.789 7.36157 7.85998C7.21082 7.48827 7.29851 7.06329 7.5844 6.78002L8.7109 5.66386C9.10504 5.27333 9.10504 4.64017 8.7109 4.24964L7.05197 2.60593Z" fill="white"/>
</g>
<defs>
<clipPath id="clip0_19_295">
<rect width="24.2222" height="24" fill="white"/>
</clipPath>
</defs>
</svg>
