<svg width="25" height="24" viewBox="0 0 25 24" fill="none" xmlns="http://www.w3.org/2000/svg">
<g clip-path="url(#clip0_3005_27007)">
<path d="M22.2039 12C22.2039 12.5523 22.6558 13 23.2132 13C23.7706 13 24.2225 12.5523 24.2225 12V10.5811C24.2225 9.20647 23.3347 7.98603 22.0185 7.55132L21.9408 7.52566C21.4952 7.3785 21.1947 6.96535 21.1947 6.5C21.1947 5.17378 20.3382 3.99636 19.0684 3.57697L18.7169 3.4609C18.2376 3.3026 17.8615 2.92994 17.7017 2.45503C17.2085 0.98891 15.8238 0 14.264 0H13.1206C12.5632 0 12.1113 0.447715 12.1113 1C12.1113 1.55228 12.5632 2 13.1206 2L14.264 2C14.9549 2 15.5683 2.43805 15.7868 3.08748C16.1475 4.1596 16.9966 5.00089 18.0786 5.35826L18.4301 5.47434C18.8756 5.6215 19.1762 6.03465 19.1762 6.5C19.1762 7.82622 20.0327 9.00364 21.3025 9.42303L21.3801 9.44868C21.8721 9.61116 22.2039 10.0673 22.2039 10.5811V12Z" fill="white"/>
<path d="M20.1854 2.20537e-05L19.6808 2.56896e-05C19.1234 2.97427e-05 18.6715 0.447748 18.6715 1.00003C18.6715 1.55232 19.1234 2.00003 19.6808 2.00003L20.1854 2.00002C21.3002 2.00001 22.2039 2.89544 22.2039 4.00001L22.2039 4.99996C22.2039 5.55225 22.6558 5.99996 23.2132 5.99996C23.7706 5.99996 24.2225 5.55224 24.2225 4.99996L24.2225 4.00001C24.2224 1.79086 22.415 5.78165e-06 20.1854 2.20537e-05Z" fill="white"/>
<path d="M0.984357 13C1.54176 13 1.99362 13.4477 1.99362 14V14.4189C1.99362 14.9327 2.32544 15.3888 2.8174 15.5513L3.12815 15.654C4.25878 16.0274 5.02139 17.0757 5.02139 18.2566V18.7639C5.02139 18.8943 5.12806 19 5.25965 19C6.11445 19 6.89589 19.4785 7.27817 20.2361L7.69031 21.0528C7.98325 21.6333 8.58208 22 9.23712 22H10.0928C10.6502 22 11.1021 22.4477 11.1021 23C11.1021 23.5523 10.6502 24 10.0928 24H9.23712C7.81752 24 6.51975 23.2053 5.88489 21.9472L5.47275 21.1305C5.43239 21.0505 5.34989 21 5.25965 21C4.01327 21 3.00288 19.9989 3.00288 18.7639V18.2566C3.00288 17.9366 2.79622 17.6525 2.48984 17.5513L2.17909 17.4487C0.862887 17.014 -0.0249023 15.7935 -0.0249023 14.4189V14C-0.0249023 13.4477 0.426958 13 0.984357 13Z" fill="white"/>
<path d="M2.01875 20C2.01875 19.4477 1.56689 19 1.00949 19C0.452091 19 0.000230577 19.4477 0.000230577 20V20.5C0.000230577 22.433 1.58174 24 3.53264 24H4.03727C4.59467 24 5.04653 23.5523 5.04653 23C5.04653 22.4477 4.59467 22 4.03727 22H3.53264C2.69654 22 2.01875 21.3284 2.01875 20.5V20Z" fill="white"/>
<path d="M2.39432 6.42585C2.35294 6.26185 2.46239 6.09797 2.63092 6.07161L6.93902 5.39762C7.46418 5.31546 8.00192 5.37177 8.49815 5.56088L11.0432 6.53076C11.5743 6.73315 12.0371 7.07974 12.3785 7.53079L15.7414 11.9736C15.919 12.2082 16.1138 12.4296 16.3241 12.6361L21.4937 17.7104C21.8897 18.0991 22.5287 18.0961 22.921 17.7038C23.3133 17.3114 23.3103 16.6783 22.9143 16.2896L17.7447 11.2152C17.6045 11.0776 17.4747 10.93 17.3562 10.7736L13.9933 6.33079C13.4243 5.57904 12.653 5.00139 11.7678 4.66406L9.22276 3.69418C8.39571 3.37901 7.49948 3.28516 6.62421 3.4221L2.31611 4.09608C0.976963 4.30559 0.107257 5.60773 0.436071 6.91092C0.765387 8.2161 1.94896 9.13173 3.30676 9.13173H4.65177C4.61112 9.14994 4.57074 9.16897 4.53066 9.18883C3.04363 9.92553 2.70457 11.88 3.85798 13.0664L6.5704 15.8563C7.90209 17.2261 9.73898 18 11.6585 18H12.648L17.3916 23.6402C17.7485 24.0645 18.3849 24.1218 18.8131 23.7682C19.2413 23.4147 19.2991 22.7841 18.9423 22.3598L13.896 16.3598C13.7042 16.1318 13.4202 16 13.1207 16H11.6585C10.2874 16 8.97535 15.4472 8.02414 14.4688L5.31173 11.6789C5.10316 11.4643 5.16447 11.1109 5.43337 10.9777C5.83186 10.7803 6.3009 10.7803 6.69939 10.9777L8.46964 11.8547C8.72139 11.9794 9.00061 11.9901 9.24745 11.9065C9.48943 11.8246 9.70031 11.652 9.82371 11.4075C9.92987 11.1971 9.95417 10.9674 9.90857 10.7539L9.65791 9.51209C9.52755 8.86628 9.08467 8.32546 8.47372 8.06603L6.65432 7.29344C6.40306 7.18674 6.13255 7.13173 5.85919 7.13173H3.30676C2.87519 7.13173 2.49899 6.8407 2.39432 6.42585Z" fill="white"/>
</g>
<defs>
<clipPath id="clip0_3005_27007">
<rect width="24.2222" height="24" fill="white"/>
</clipPath>
</defs>
</svg>
