<svg width="25" height="24" viewBox="0 0 25 24" fill="none" xmlns="http://www.w3.org/2000/svg">
<path d="M12.1111 22C9.95806 22 8.01944 21.3917 6.29529 20.175C4.57114 18.9583 3.34741 17.3667 2.62411 15.4C2.54001 15.15 2.56524 14.9167 2.6998 14.7C2.83437 14.4833 3.03622 14.3333 3.30536 14.25C3.5745 14.1667 3.83102 14.1958 4.07492 14.3375C4.31882 14.4792 4.49124 14.675 4.59217 14.925C5.19772 16.4417 6.18175 17.6667 7.54425 18.6C8.90675 19.5333 10.429 20 12.1111 20C13.5578 20 14.9034 19.6458 16.1482 18.9375C17.3929 18.2292 18.3686 17.25 19.075 16H17.1574C16.8715 16 16.6318 15.9042 16.4383 15.7125C16.2449 15.5208 16.1482 15.2833 16.1482 15C16.1482 14.7167 16.2449 14.4792 16.4383 14.2875C16.6318 14.0958 16.8715 14 17.1574 14H21.1945C21.4804 14 21.7201 14.0958 21.9136 14.2875C22.107 14.4792 22.2037 14.7167 22.2037 15V19C22.2037 19.2833 22.107 19.5208 21.9136 19.7125C21.7201 19.9042 21.4804 20 21.1945 20C20.9085 20 20.6688 19.9042 20.4754 19.7125C20.2819 19.5208 20.1852 19.2833 20.1852 19V18C19.2264 19.2667 18.0405 20.25 16.6276 20.95C15.2146 21.65 13.7091 22 12.1111 22ZM12.1111 4C10.6645 4 9.31886 4.35417 8.07411 5.0625C6.82936 5.77083 5.85374 6.75 5.14726 8H7.06485C7.35081 8 7.59051 8.09583 7.78395 8.2875C7.97739 8.47917 8.07411 8.71667 8.07411 9C8.07411 9.28333 7.97739 9.52083 7.78395 9.7125C7.59051 9.90417 7.35081 10 7.06485 10H3.02781C2.74186 10 2.50216 9.90417 2.30872 9.7125C2.11528 9.52083 2.01855 9.28333 2.01855 9V5C2.01855 4.71667 2.11528 4.47917 2.30872 4.2875C2.50216 4.09583 2.74186 4 3.02781 4C3.31377 4 3.55347 4.09583 3.74691 4.2875C3.94035 4.47917 4.03707 4.71667 4.03707 5V6C4.99587 4.73333 6.18175 3.75 7.59471 3.05C9.00767 2.35 10.5132 2 12.1111 2C14.2642 2 16.2029 2.60833 17.927 3.825C19.6512 5.04167 20.8749 6.63333 21.5982 8.6C21.6823 8.85 21.6571 9.08333 21.5225 9.3C21.3879 9.51667 21.1861 9.66667 20.9169 9.75C20.6478 9.83333 20.3913 9.80417 20.1474 9.6625C19.9035 9.52083 19.7311 9.325 19.6301 9.075C19.0246 7.55833 18.0405 6.33333 16.678 5.4C15.3155 4.46667 13.7932 4 12.1111 4Z" fill="white"/>
</svg>
