<svg width="25" height="24" viewBox="0 0 25 24" fill="none" xmlns="http://www.w3.org/2000/svg">
<path fill-rule="evenodd" clip-rule="evenodd" d="M21.1945 16C21.7519 16 22.2038 16.4477 22.2038 17C22.2038 17.5523 21.7519 18 21.1945 18H4.03709C3.47969 18 3.02783 17.5523 3.02783 17C3.02783 16.4477 3.47969 16 4.03709 16H21.1945ZM21.1945 11C21.7519 11 22.2038 11.4477 22.2038 12C22.2038 12.5523 21.7519 13 21.1945 13H4.03709C3.47969 13 3.02783 12.5523 3.02783 12C3.02783 11.4477 3.47969 11 4.03709 11H21.1945ZM21.1945 6C21.7519 6 22.2038 6.44772 22.2038 7C22.2038 7.55228 21.7519 8 21.1945 8H4.03709C3.47969 8 3.02783 7.55228 3.02783 7C3.02783 6.44772 3.47969 6 4.03709 6H21.1945Z" fill="white"/>
</svg>
