<svg width="25" height="24" viewBox="0 0 25 24" fill="none" xmlns="http://www.w3.org/2000/svg">
<g clip-path="url(#clip0_741_12428)">
<path d="M9.08333 2C12.9851 2 16.1481 5.13401 16.1481 9C16.1481 10.6727 15.5573 12.2059 14.5703 13.4099C13.4948 14.7217 13.1204 16.4907 13.1204 18C13.1204 20.2091 11.3129 22 9.08333 22C7.42946 22 6.00565 21.0144 5.38177 19.5996C5.1586 19.0935 4.56363 18.8625 4.05285 19.0836C3.54208 19.3048 3.30893 19.8943 3.53209 20.4004C4.46561 22.5174 6.5986 24 9.08333 24C12.4277 24 15.1389 21.3137 15.1389 18C15.1389 16.7529 15.4585 15.4986 16.137 14.6709C17.4056 13.1234 18.1667 11.1484 18.1667 9C18.1667 4.02944 14.0999 0 9.08333 0C4.06675 0 0 4.02944 0 9C0 9.55229 0.451861 10 1.00926 10C1.56666 10 2.01852 9.55229 2.01852 9C2.01852 5.13401 5.18154 2 9.08333 2Z" fill="white"/>
<path d="M9.33565 7C10.8685 7 12.1111 8.23122 12.1111 9.75V10C12.1111 10.5523 12.563 11 13.1204 11C13.6778 11 14.1296 10.5523 14.1296 10V9.75C14.1296 7.12665 11.9833 5 9.33565 5H8.95915C6.51359 5 4.54167 6.98055 4.54167 9.39206C4.54167 10.7053 5.14339 11.9576 6.18202 12.7809L6.55626 13.0775C6.8777 13.3323 7.06481 13.7181 7.06481 14.1259C7.06481 14.6087 6.66985 15 6.18264 15H5.92099C5.43791 15 5.0463 14.612 5.0463 14.1333V14C5.0463 13.4477 4.59444 13 4.03704 13C3.47964 13 3.02778 13.4477 3.02778 14V14.1333C3.02778 15.7165 4.32311 17 5.92099 17H6.18264C7.78465 17 9.08333 15.7132 9.08333 14.1259C9.08333 13.1105 8.61748 12.1501 7.81722 11.5158L7.44298 11.2191C6.88682 10.7783 6.56018 10.1024 6.56018 9.39206C6.56018 8.07349 7.64009 7 8.95915 7H9.33565Z" fill="white"/>
<path d="M20.6139 12.688C20.44 12.1633 19.8697 11.8776 19.3401 12.0499C18.8105 12.2222 18.5222 12.7872 18.6961 13.312C19.0603 14.411 18.4564 15.5944 17.3472 15.9553C16.8176 16.1276 16.5293 16.6926 16.7031 17.2174C16.877 17.7421 17.4473 18.0278 17.9769 17.8555C20.1452 17.15 21.3258 14.8365 20.6139 12.688Z" fill="white"/>
<path d="M23.8485 12.6881C23.6746 12.1634 23.1044 11.8777 22.5748 12.05C22.0452 12.2223 21.7569 12.7873 21.9308 13.3121C22.6985 15.6289 21.4254 18.1237 19.0872 18.8844C18.5576 19.0567 18.2692 19.6218 18.4431 20.1465C18.617 20.6712 19.1873 20.9569 19.7169 20.7846C23.1143 19.6793 24.9641 16.0544 23.8485 12.6881Z" fill="white"/>
</g>
<defs>
<clipPath id="clip0_741_12428">
<rect width="24.2222" height="24" fill="white"/>
</clipPath>
</defs>
</svg>
