<svg width="25" height="24" viewBox="0 0 25 24" fill="none" xmlns="http://www.w3.org/2000/svg">
<g clip-path="url(#clip0_3005_27008)">
<path d="M9.95741 2.57191L13.7031 9.00012H20.1852V7.61815C20.1852 6.8606 20.6172 6.16808 21.301 5.8293L22.7616 5.10569C23.2602 4.8587 23.8664 5.05892 24.1157 5.5529C24.365 6.04688 24.1629 6.64755 23.6644 6.89454L22.2037 7.61815V10.0001C22.2037 12.6523 21.1404 15.1958 19.2477 17.0712C19.2165 17.1021 19.1852 17.1327 19.1537 17.1631C20.3413 17.5687 21.1945 18.6857 21.1945 20.0001C21.1945 21.657 19.8389 23.0001 18.1667 23.0001C16.4945 23.0001 15.1389 21.657 15.1389 20.0001C15.1389 19.8394 15.1517 19.6817 15.1762 19.5278C14.1941 19.838 13.1611 20.0001 12.1111 20.0001C11.0612 20.0001 10.0282 19.838 9.04606 19.5278C9.07061 19.6817 9.08337 19.8394 9.08337 20.0001C9.08337 21.657 7.72779 23.0001 6.05559 23.0001C4.3834 23.0001 3.02781 21.657 3.02781 20.0001C3.02781 18.6857 3.88101 17.5687 5.06861 17.1631C5.0371 17.1327 5.00576 17.1021 4.97461 17.0712C3.08188 15.1958 2.01855 12.6523 2.01855 10.0001C2.01855 8.06921 2.53153 6.17233 3.50592 4.50012C4.10843 3.46612 4.87422 2.54056 5.77 1.75643C7.1901 0.513331 9.15623 1.19695 9.95741 2.57191ZM11.3723 9.00011L8.20932 3.57191C8.06689 3.32747 7.84447 3.17833 7.63433 3.12943C7.43767 3.08367 7.25806 3.12256 7.10644 3.25528C6.37352 3.89685 5.74696 4.65412 5.25401 5.50012C4.62587 6.5781 4.2321 7.7702 4.09331 9.00012L11.3723 9.00011ZM20.1219 11.0001L4.10037 11.0001C4.32323 12.7531 5.1276 14.3943 6.40192 15.657C7.9161 17.1573 9.96977 18.0001 12.1111 18.0001C14.2525 18.0001 16.3062 17.1573 17.8204 15.657C19.0947 14.3943 19.8991 12.7531 20.1219 11.0001ZM6.05559 19.0001C5.49819 19.0001 5.04633 19.4478 5.04633 20.0001C5.04633 20.5524 5.49819 21.0001 6.05559 21.0001C6.61299 21.0001 7.06485 20.5524 7.06485 20.0001C7.06485 19.4478 6.61299 19.0001 6.05559 19.0001ZM18.1667 19.0001C17.6093 19.0001 17.1574 19.4478 17.1574 20.0001C17.1574 20.5524 17.6093 21.0001 18.1667 21.0001C18.7241 21.0001 19.176 20.5524 19.176 20.0001C19.176 19.4478 18.7241 19.0001 18.1667 19.0001Z" fill="white"/>
</g>
<defs>
<clipPath id="clip0_3005_27008">
<rect width="24.2222" height="24" fill="white"/>
</clipPath>
</defs>
</svg>
