<svg width="25" height="24" viewBox="0 0 25 24" fill="none" xmlns="http://www.w3.org/2000/svg">
<path d="M12.6888 2.08666L20.6313 10.3311C21.0568 10.7995 21.0568 11.5022 20.584 11.9238C20.1113 12.3453 19.4021 12.3453 18.9766 11.8769L13.0197 5.64675V21.5735C13.0197 22.2293 12.4996 22.6977 11.885 22.6977C11.2232 22.6977 10.7504 22.2293 10.7504 21.5735V5.64675L4.74622 11.8769C4.32072 12.3453 3.61157 12.3453 3.1388 11.9238C2.66603 11.5022 2.66603 10.7527 3.09152 10.3311L11.0341 2.08666C11.2704 1.85244 11.5541 1.71191 11.885 1.71191C12.1687 1.71191 12.4524 1.85244 12.6888 2.08666Z" fill="white"/>
</svg>
