<svg width="25" height="24" viewBox="0 0 25 24" fill="none" xmlns="http://www.w3.org/2000/svg">
<g clip-path="url(#clip0_19_305)">
<path fill-rule="evenodd" clip-rule="evenodd" d="M10.6323 1.80682C9.99644 1.79809 9.45187 2.11608 9.01002 2.4308C8.55722 2.75331 8.01609 3.22248 7.36849 3.78396L3.73291 6.93591C3.6933 6.97025 3.67361 6.98727 3.65903 6.99945L3.65776 7.00051L3.65611 7.00054C3.63704 7.00089 3.6109 7.00092 3.55827 7.00092L3.46929 7.00087C3.06544 7.00054 2.71757 7.00025 2.40744 7.06458C1.2304 7.30874 0.310768 8.21994 0.0643473 9.38618C-0.000580736 9.69346 -0.000289817 10.0381 4.79016e-05 10.4383V13.5636C-0.000289817 13.9637 -0.000580736 14.3084 0.0643473 14.6157C0.310768 15.7819 1.2304 16.6931 2.40744 16.9373C2.71757 17.0016 3.06543 17.0013 3.46929 17.001L3.55827 17.0009C3.6109 17.0009 3.63704 17.001 3.65611 17.0013L3.65776 17.0013L3.65903 17.0024C3.67361 17.0146 3.6933 17.0316 3.73291 17.0659L7.36845 20.2178C8.01607 20.7793 8.55721 21.2485 9.01002 21.571C9.45187 21.8858 9.99644 22.2038 10.6323 22.195C11.3354 22.1854 12.0026 21.8854 12.473 21.3674C12.8983 20.8991 13.0154 20.2836 13.0673 19.7469C13.1205 19.1969 13.1205 18.4844 13.1205 17.6318V6.37008C13.1205 5.51744 13.1205 4.80499 13.0673 4.25498C13.0154 3.71826 12.8983 3.10279 12.473 2.63441C12.0026 2.11644 11.3354 1.81647 10.6323 1.80682ZM8.65811 5.32343C9.35562 4.71871 9.82368 4.31439 10.1882 4.05474C10.4781 3.84825 10.5987 3.8125 10.6169 3.8071C10.7484 3.81227 10.8731 3.86801 10.9636 3.96266C10.9715 3.9798 11.0239 4.09364 11.058 4.4458C11.1008 4.88861 11.1019 5.50387 11.1019 6.42219V17.5797C11.1019 18.498 11.1008 19.1132 11.058 19.556C11.0239 19.9082 10.9717 20.0217 10.9638 20.0388C10.8733 20.1334 10.7488 20.1897 10.6173 20.1949C10.5991 20.1895 10.4782 20.1536 10.1882 19.9471C9.82368 19.6875 9.35562 19.2831 8.65811 18.6784L5.04669 15.5474C4.98919 15.4974 4.91705 15.4348 4.83795 15.3783C4.54695 15.1705 4.20534 15.0434 3.84827 15.0098C3.7512 15.0007 3.65525 15.0008 3.57878 15.0009L3.55827 15.0009C3.01443 15.0009 2.89757 14.9956 2.82106 14.9797C2.42872 14.8983 2.12217 14.5946 2.04003 14.2058C2.02401 14.13 2.01862 14.0142 2.01862 13.4754V10.5265C2.01862 9.9876 2.02401 9.87182 2.04003 9.79601C2.12217 9.40726 2.42872 9.10353 2.82106 9.02214C2.89757 9.00627 3.01443 9.00092 3.55827 9.00092L3.57878 9.00094C3.65526 9.00102 3.7512 9.00112 3.84827 8.99201C4.20534 8.9585 4.54695 8.83132 4.83795 8.62357C4.91706 8.56709 4.98919 8.50441 5.04669 8.45445L8.65811 5.32343Z" fill="white"/>
<path fill-rule="evenodd" clip-rule="evenodd" d="M15.149 3.85997C15.0709 4.4068 15.4549 4.91285 16.0068 4.99026C17.1482 5.15033 18.203 5.57134 19.1073 6.18985C20.9838 7.47324 22.2038 9.59898 22.2038 12.0001C22.2038 14.4013 20.9838 16.527 19.1073 17.8104C18.203 18.4289 17.1482 18.8499 16.0068 19.01C15.4549 19.0874 15.0709 19.5934 15.149 20.1403C15.2271 20.6871 15.7378 21.0677 16.2897 20.9903C17.7484 20.7857 19.0978 20.2471 20.254 19.4563C22.6482 17.8188 24.2223 15.0917 24.2223 12.0001C24.2223 8.90852 22.6482 6.18141 20.254 4.54391C19.0978 3.75312 17.7484 3.21458 16.2897 3.01C15.7378 2.93259 15.2271 3.31314 15.149 3.85997Z" fill="white"/>
<path fill-rule="evenodd" clip-rule="evenodd" d="M15.2029 8.64933C15.0072 9.16649 15.2718 9.74285 15.7937 9.93667C16.5605 10.2214 17.1572 11.0158 17.1572 12.0003C17.1572 12.9847 16.5605 13.7791 15.7937 14.0639C15.2718 14.2577 15.0072 14.8341 15.2029 15.3512C15.3985 15.8684 15.9802 16.1305 16.5021 15.9367C18.0873 15.348 19.1757 13.7859 19.1757 12.0003C19.1757 10.2146 18.0873 8.65251 16.5021 8.06387C15.9802 7.87005 15.3985 8.13217 15.2029 8.64933Z" fill="white"/>
</g>
<defs>
<clipPath id="clip0_19_305">
<rect width="24.2222" height="24" fill="white"/>
</clipPath>
</defs>
</svg>
