<svg width="25" height="24" viewBox="0 0 25 24" fill="none" xmlns="http://www.w3.org/2000/svg">
<path fill-rule="evenodd" clip-rule="evenodd" d="M15.5974 12.6031C16.9584 11.5091 17.8282 9.83868 17.8282 7.96692C17.8282 4.67148 15.132 2 11.806 2C8.48009 2 5.78387 4.67148 5.78387 7.96692C5.78387 9.83868 6.65369 11.5091 8.01467 12.6031C5.96594 13.3057 4.32098 14.9465 3.67233 17.0888L2.37892 21.3607C2.24239 21.8116 2.50064 22.2868 2.95574 22.4221C3.41083 22.5573 3.89044 22.3015 4.02697 21.8505L5.32039 17.5787C5.9754 15.4153 7.98503 13.9338 10.2646 13.9338H13.3475C15.6271 13.9338 17.6367 15.4153 18.2917 17.5787L19.5851 21.8505C19.7216 22.3015 20.2013 22.5573 20.6563 22.4221C21.1114 22.2868 21.3697 21.8116 21.2332 21.3607L19.9398 17.0888C19.2911 14.9465 17.6461 13.3057 15.5974 12.6031ZM7.50449 7.96692C7.50449 5.61303 9.43036 3.70483 11.806 3.70483C14.1817 3.70483 16.1076 5.61303 16.1076 7.96692C16.1076 10.3208 14.1817 12.229 11.806 12.229C9.43036 12.229 7.50449 10.3208 7.50449 7.96692Z" fill="white"/>
</svg>
