<svg width="25" height="24" viewBox="0 0 25 24" fill="none" xmlns="http://www.w3.org/2000/svg">
<g clip-path="url(#clip0_241_50196)">
<path fill-rule="evenodd" clip-rule="evenodd" d="M12.1111 5.9998C8.76672 5.9998 6.05556 8.68609 6.05556 11.9998C6.05556 15.3135 8.76672 17.9998 12.1111 17.9998C15.4555 17.9998 18.1667 15.3135 18.1667 11.9998C18.1667 8.68609 15.4555 5.9998 12.1111 5.9998ZM8.07408 11.9998C8.07408 9.79066 9.88152 7.9998 12.1111 7.9998C14.3407 7.9998 16.1481 9.79066 16.1481 11.9998C16.1481 14.2089 14.3407 15.9998 12.1111 15.9998C9.88152 15.9998 8.07408 14.2089 8.07408 11.9998Z" fill="white"/>
<path fill-rule="evenodd" clip-rule="evenodd" d="M16.4186 0.607612C16.0758 0.41154 15.649 0.432059 15.3271 0.66009L13.3344 2.07131C12.5169 1.97276 11.696 1.97497 10.89 2.07286L8.89516 0.660088C8.57318 0.432057 8.14639 0.411538 7.80364 0.607609L4.30747 2.60761C3.96472 2.80368 3.76926 3.18015 3.80758 3.57045L4.04493 5.988C3.80261 6.30793 3.57722 6.64544 3.37067 6.99992C3.16412 7.35439 2.98181 7.71654 2.82334 8.08444L0.591624 9.08955C0.231325 9.25182 0 9.60777 0 9.99992V13.9999C0 14.3921 0.231325 14.748 0.591625 14.9103L2.82387 15.9156C3.14132 16.6562 3.54985 17.3617 4.04472 18.0139L3.80758 20.4294C3.76926 20.8197 3.96472 21.1961 4.30747 21.3922L7.80364 23.3922C8.1464 23.5883 8.57318 23.5678 8.89516 23.3397L10.8878 21.9285C11.7053 22.0271 12.5262 22.0249 13.3322 21.927L15.3271 23.3397C15.649 23.5678 16.0758 23.5883 16.4186 23.3922L19.9148 21.3922C20.2575 21.1961 20.453 20.8197 20.4146 20.4294L20.1773 18.0118C20.4196 17.6919 20.645 17.3544 20.8516 16.9999C21.0581 16.6454 21.2404 16.2833 21.3989 15.9154L23.6306 14.9103C23.9909 14.748 24.2222 14.3921 24.2222 13.9999V9.99992C24.2222 9.60777 23.9909 9.25182 23.6306 9.08955L21.3984 8.0842C21.0809 7.34362 20.6724 6.63812 20.1775 5.98592L20.4146 3.57046C20.453 3.18016 20.2575 2.80368 19.9148 2.60761L16.4186 0.607612ZM14.1791 3.93145L15.9721 2.66162L18.3427 4.01771L18.1293 6.19116C18.1034 6.4547 18.1841 6.71766 18.3536 6.92235C18.9181 7.60386 19.3593 8.36829 19.6674 9.18039C19.7615 9.4284 19.951 9.62929 20.1945 9.73893L22.2037 10.6438V13.356L20.1959 14.2603C19.953 14.3697 19.7637 14.5699 19.6694 14.8172C19.5162 15.2191 19.328 15.6146 19.1035 15.9999C18.8789 16.3852 18.6274 16.7445 18.3527 17.0769C18.1837 17.2815 18.1033 17.544 18.1292 17.8072L18.3427 19.9821L15.9721 21.3382L14.1766 20.0666C13.959 19.9125 13.6887 19.8503 13.4249 19.8936C12.561 20.0353 11.6722 20.0389 10.7943 19.8953C10.5307 19.8522 10.2605 19.9144 10.0431 20.0684L8.25009 21.3382L5.87954 19.9821L6.09292 17.8087C6.11879 17.5451 6.03812 17.2822 5.86859 17.0775C5.30416 16.396 4.86289 15.6315 4.55483 14.8194C4.46075 14.5714 4.27118 14.3705 4.02774 14.2609L2.01852 13.356L2.01852 10.6438L4.02628 9.73958C4.26919 9.63018 4.4585 9.42992 4.55279 9.1826C4.70601 8.78072 4.89423 8.38524 5.11876 7.99992C5.34329 7.61459 5.59484 7.25534 5.86949 6.92293C6.03851 6.71836 6.1189 6.45579 6.09307 6.19265L5.87953 4.0177L8.25009 2.66162L10.0456 3.93324C10.2632 4.08731 10.5336 4.14954 10.7974 4.10626C11.6612 3.96455 12.55 3.96097 13.4279 4.10455C13.6915 4.14767 13.9617 4.08542 14.1791 3.93145Z" fill="white"/>
</g>
<defs>
<clipPath id="clip0_241_50196">
<rect width="24.2222" height="24" fill="white"/>
</clipPath>
</defs>
</svg>
