<svg width="25" height="24" viewBox="0 0 25 24" fill="none" xmlns="http://www.w3.org/2000/svg">
<path fill-rule="evenodd" clip-rule="evenodd" d="M8.07593 5C8.07593 2.79086 9.88337 1 12.113 1C14.3426 1 16.15 2.79086 16.15 5V12C16.15 14.2091 14.3426 16 12.113 16C9.88337 16 8.07593 14.2091 8.07593 12V5ZM12.113 3C10.9982 3 10.0944 3.89543 10.0944 5V12C10.0944 13.1046 10.9982 14 12.113 14C13.2278 14 14.1315 13.1046 14.1315 12V5C14.1315 3.89543 13.2278 3 12.113 3ZM6.05432 11.9224L6.05467 11.926C6.05531 11.9328 6.05655 11.9454 6.05855 11.9634C6.06256 11.9994 6.06959 12.0568 6.08093 12.1326C6.10366 12.2843 6.14339 12.5079 6.21004 12.779C6.3443 13.3251 6.58246 14.0424 6.99465 14.7503C7.79387 16.1229 9.25551 17.5 12.1129 17.5C14.9703 17.5 16.432 16.1229 17.2312 14.7503C17.6434 14.0424 17.8815 13.3251 18.0158 12.779C18.0824 12.5079 18.1222 12.2843 18.1449 12.1326C18.1562 12.0568 18.1633 11.9994 18.1673 11.9634C18.1693 11.9454 18.1712 11.926 18.1712 11.926L18.1717 11.9202C18.216 11.3711 18.7004 10.9607 19.2551 11.0029C19.8109 11.0453 20.2268 11.526 20.184 12.0767L20.1839 12.0777L20.1838 12.0789L20.1836 12.0818C20.1806 12.1154 20.1774 12.149 20.1736 12.1826C20.1671 12.2418 20.1568 12.324 20.1416 12.426C20.1111 12.6297 20.0601 12.914 19.977 13.2523C19.8116 13.9249 19.5136 14.8326 18.9796 15.7497C17.9901 17.4492 16.1994 19.145 13.1222 19.4511V22C13.1222 22.5523 12.6704 23 12.113 23C11.5556 23 11.1037 22.5523 11.1037 22V19.4511C8.02647 19.145 6.23579 17.4492 5.24623 15.7497C4.71225 14.8326 4.41423 13.9249 4.24887 13.2523C4.1657 12.914 4.11476 12.6297 4.08427 12.426C4.06899 12.324 4.05878 12.2418 4.05219 12.1826C4.04019 12.1129 4.03573 11.9206 4.04199 12.0789L4.0419 12.0777L4.03975 12.0309C3.997 11.4802 4.41494 11.0453 4.9707 11.0029C5.52544 10.9607 6.00987 11.3711 6.05415 11.9203L6.05432 11.9224Z" fill="white"/>
</svg>
