<svg width="80" height="80" viewBox="0 0 80 80" fill="none" xmlns="http://www.w3.org/2000/svg">
<g clip-path="url(#clip0_38_1699)">
<path d="M0 8C0 3.58172 3.58172 0 8 0H72C76.4183 0 80 3.58172 80 8V72C80 76.4183 76.4183 80 72 80H8C3.58172 80 0 76.4183 0 72V8Z" fill="#FF8E5D"/>
<path d="M0 8C0 3.58172 3.58172 0 8 0H72C76.4183 0 80 3.58172 80 8V72C80 76.4183 76.4183 80 72 80H8C3.58172 80 0 76.4183 0 72V8Z" fill="url(#paint0_radial_38_1699)"/>
<path d="M0 8C0 3.58172 3.58172 0 8 0H72C76.4183 0 80 3.58172 80 8V72C80 76.4183 76.4183 80 72 80H8C3.58172 80 0 76.4183 0 72V8Z" fill="url(#paint1_radial_38_1699)"/>
<path d="M0 8C0 3.58172 3.58172 0 8 0H72C76.4183 0 80 3.58172 80 8V72C80 76.4183 76.4183 80 72 80H8C3.58172 80 0 76.4183 0 72V8Z" fill="url(#paint2_radial_38_1699)"/>
<path d="M26.4667 31.0751C26.4667 33.137 24.7952 34.8085 22.7333 34.8085C20.6715 34.8085 19 33.137 19 31.0751C19 29.0133 20.6715 27.3418 22.7333 27.3418C24.7952 27.3418 26.4667 29.0133 26.4667 31.0751Z" fill="#1F0E41"/>
<path d="M60.6 31.0751C60.6 33.137 58.9286 34.8085 56.8667 34.8085C54.8048 34.8085 53.1334 33.137 53.1334 31.0751C53.1334 29.0133 54.8048 27.3418 56.8667 27.3418C58.9286 27.3418 60.6 29.0133 60.6 31.0751Z" fill="#1F0E41"/>
<path d="M51.4797 53.5947C52.0027 53.4179 52.5702 53.6987 52.7473 54.2217C52.9241 54.7447 52.6433 55.3122 52.1203 55.4893C48.6744 56.6562 44.2129 57.2193 39.799 57.2168C35.3848 57.2143 30.9253 56.6464 27.4816 55.4902C26.9581 55.3145 26.676 54.7472 26.8518 54.2236C27.0275 53.7001 27.5948 53.418 28.1184 53.5938C31.2953 54.6604 35.5257 55.2144 39.801 55.2168C44.0765 55.2192 48.3051 54.6699 51.4797 53.5947Z" fill="#1F0E41"/>
</g>
<defs>
<radialGradient id="paint0_radial_38_1699" cx="0" cy="0" r="1" gradientTransform="matrix(-50.375 -56.3077 56.3077 -33.9145 80 80)" gradientUnits="userSpaceOnUse">
<stop stop-color="#FFA86B"/>
<stop offset="1" stop-color="#FFA86B" stop-opacity="0"/>
</radialGradient>
<radialGradient id="paint1_radial_38_1699" cx="0" cy="0" r="1" gradientTransform="matrix(22.75 26.0513 -26.8519 16.4318 0 0)" gradientUnits="userSpaceOnUse">
<stop stop-color="#FF8E5E"/>
<stop offset="1" stop-color="#FF8E5E" stop-opacity="0"/>
</radialGradient>
<radialGradient id="paint2_radial_38_1699" cx="0" cy="0" r="1" gradientTransform="matrix(-37.4631 39.938 -33.6352 -34.862 80 8.91685e-06)" gradientUnits="userSpaceOnUse">
<stop stop-color="#E15E9B"/>
<stop offset="1" stop-color="#E15E9B" stop-opacity="0"/>
</radialGradient>
<clipPath id="clip0_38_1699">
<path d="M0 8C0 3.58172 3.58172 0 8 0H72C76.4183 0 80 3.58172 80 8V72C80 76.4183 76.4183 80 72 80H8C3.58172 80 0 76.4183 0 72V8Z" fill="white"/>
</clipPath>
</defs>
</svg>
